<?xml version="1.0" encoding="iso-8859-1"?>
<!-- Generator: Adobe Illustrator 19.0.0, SVG Export Plug-In . SVG Version: 6.00 Build 0)  -->
<svg version="1.1" id="Capa_1" xmlns="http://www.w3.org/2000/svg" xmlns:xlink="http://www.w3.org/1999/xlink" x="0px" y="0px"
	 viewBox="0 0 512 512" style="enable-background:new 0 0 512 512;" xml:space="preserve">
<polygon style="fill:#C6C5CA;" points="416.52,481.833 95.48,481.833 109.266,431.345 402.734,431.345 "/>
<path style="fill:#FFFFFF;" d="M428,504.5H84c-6.259,0-11.333-5.074-11.333-11.333l0,0c0-6.259,5.074-11.333,11.333-11.333h344
	c6.259,0,11.333,5.074,11.333,11.333l0,0C439.333,499.426,434.259,504.5,428,504.5z"/>
<path style="fill:#E0E0E2;" d="M236.5,51.186h-99.167V20.042c0-6.927,5.615-12.542,12.542-12.542h74.083
	c6.927,0,12.542,5.615,12.542,12.542V51.186z"/>
<rect x="256" y="243.07" style="fill:#FFE477;" width="100.19" height="144.59"/>
<g>
	<path style="fill:#E0E0E2;" d="M482.56,243.072H356.192v43.88H482.56c12.117,0,21.94-9.823,21.94-21.94l0,0
		C504.5,252.895,494.677,243.072,482.56,243.072z"/>
	<path style="fill:#E0E0E2;" d="M255.997,243.072H29.44c-12.117,0-21.94,9.823-21.94,21.94l0,0c0,12.117,9.823,21.94,21.94,21.94
		h226.557L255.997,243.072L255.997,243.072z"/>
</g>
<path style="fill:#FFFFFF;" d="M356.192,286.952v100.715H255.997V286.952H29.44l15.476,89.437
	c5.496,31.76,33.051,54.957,65.283,54.957h291.603c32.232,0,59.787-23.197,65.283-54.957l15.476-89.437L356.192,286.952
	L356.192,286.952z"/>
<circle style="fill:#787680;" cx="43.701" cy="161.87" r="27.299"/>
<g>
	<path style="fill:#C6C5CA;" d="M46,189.061v54.011h25v-81.206C71,176.168,60,187.893,46,189.061z"/>
	<path style="fill:#C6C5CA;" d="M46,63.031v71.64c14,1.168,25,12.894,25,27.195V63.281c0-10.614,8.605-19.219,19.219-19.219h47.115
		v-25H89.969C65.685,19.063,46,38.748,46,63.031z"/>
</g>
<g>
	<path style="fill:#898890;" d="M71,182.979v-21.113c0,14.302-11,26.027-25,27.195v54.011h10v-54.011
		C61.669,188.588,66.846,186.384,71,182.979z"/>
	<path style="fill:#898890;" d="M56,134.671v-71.64c0-24.283,19.685-43.969,43.969-43.969h-10C65.685,19.063,46,38.748,46,63.031
		v71.64c14,1.168,25,12.894,25,27.195v-21.113C66.846,137.348,61.669,135.144,56,134.671z"/>
	<polygon style="fill:#898890;" points="109.266,431.345 95.48,481.833 125.48,481.833 139.266,431.345 	"/>
</g>
<path style="fill:#E0E0E2;" d="M102.667,493.167L102.667,493.167c0-6.259,5.074-11.333,11.333-11.333H84
	c-6.259,0-11.333,5.074-11.333,11.333l0,0c0,6.259,5.074,11.333,11.333,11.333h30C107.741,504.5,102.667,499.426,102.667,493.167z"
	/>
<path style="fill:#C6C5CA;" d="M179.875,7.5h-30c-6.927,0-12.542,5.615-12.542,12.542v31.144h30V20.042
	C167.333,13.115,172.948,7.5,179.875,7.5z"/>
<rect x="256" y="243.07" style="fill:#FFB655;" width="30" height="144.59"/>
<g>
	<rect x="356.19" y="243.07" style="fill:#C6C5CA;" width="30" height="43.88"/>
	<path style="fill:#C6C5CA;" d="M37.5,265.012c0-12.117,9.823-21.94,21.94-21.94h-30c-12.117,0-21.94,9.823-21.94,21.94
		s9.823,21.94,21.94,21.94h30C47.323,286.952,37.5,277.129,37.5,265.012z"/>
</g>
<g>
	<path style="fill:#E0E0E2;" d="M74.916,376.389L59.44,286.952h-30l15.476,89.437c5.496,31.76,33.051,54.957,65.283,54.957h30
		C107.966,431.345,80.411,408.149,74.916,376.389z"/>
	<rect x="356.19" y="286.95" style="fill:#E0E0E2;" width="30" height="100.72"/>
</g>
<path style="fill:#57565C;" d="M36.402,161.866c0-11.547,7.169-21.419,17.299-25.409c-3.097-1.22-6.47-1.89-10-1.89
	c-15.077,0-27.299,12.222-27.299,27.299s12.222,27.299,27.299,27.299c3.53,0,6.903-0.67,10-1.89
	C43.571,183.285,36.402,173.413,36.402,161.866z"/>
<rect x="373.38" y="449.09" width="15" height="15"/>
<rect x="348.38" y="449.09" width="15" height="15"/>
<rect x="323.38" y="449.09" width="15" height="15"/>
<rect x="315.46" y="275.27" width="15" height="15"/>
<rect x="315.46" y="325.27" width="15" height="15"/>
<rect x="315.46" y="300.27" width="15" height="15"/>
<rect x="57.877" y="307.85" width="15" height="15"/>
<rect x="132.88" y="307.85" width="15" height="15"/>
<rect x="82.88" y="307.85" width="15" height="15"/>
<rect x="107.88" y="307.85" width="15" height="15"/>
<rect x="143.92" y="75.07" width="15" height="15"/>
<rect x="143.92" y="175.07" width="15" height="15"/>
<rect x="143.92" y="150.07" width="15" height="15"/>
<rect x="143.92" y="100.07" width="15" height="15"/>
<rect x="143.92" y="125.07" width="15" height="15"/>
<rect x="179.42" y="183" width="15" height="15"/>
<rect x="179.42" y="208" width="15" height="15"/>
<rect x="179.42" y="75.07" width="15" height="97.93"/>
<rect x="214.92" y="150.07" width="15" height="15"/>
<rect x="214.92" y="175.07" width="15" height="15"/>
<rect x="214.92" y="75.07" width="15" height="15"/>
<rect x="214.92" y="100.07" width="15" height="15"/>
<rect x="214.92" y="125.07" width="15" height="15"/>
<g>
	<rect x="469" y="257.51" style="fill:#FFFFFF;" width="15" height="15"/>
	<rect x="444" y="257.51" style="fill:#FFFFFF;" width="15" height="15"/>
	<rect x="380" y="257.51" style="fill:#FFFFFF;" width="54" height="15"/>
	<rect x="206" y="449.09" style="fill:#FFFFFF;" width="15" height="15"/>
	<rect x="124.75" y="449.09" style="fill:#FFFFFF;" width="71.25" height="15"/>
	<rect x="231" y="449.09" style="fill:#FFFFFF;" width="15" height="15"/>
	<rect x="151.42" y="21.843" style="fill:#FFFFFF;" width="21" height="15"/>
	<rect x="182.42" y="21.843" style="fill:#FFFFFF;" width="15" height="15"/>
	<rect x="207.42" y="21.843" style="fill:#FFFFFF;" width="15" height="15"/>
</g>
<path d="M363.692,235.572H248.497v159.595h115.195V235.572z M348.692,380.167H330.46v-26.834h-15v26.834h-18.883v-62.743h-15v62.743
	h-18.08V278.833h42.598v-15h-42.598v-13.261h85.195L348.692,380.167L348.692,380.167z"/>
<path d="M512,265.012c0-16.233-13.207-29.439-29.44-29.439H376.192v15H482.56c7.962,0,14.44,6.478,14.44,14.439
	c0,7.963-6.478,14.44-14.44,14.44H376.192v15h97.459l-4.163,24.06h-41.154v15h38.559l-7.198,41.599
	c-4.887,28.239-29.234,48.735-57.893,48.735H110.198c-19.656,0-37.283-9.642-47.995-24.811H95.48v-15H54.572
	c-0.973-2.872-1.735-5.853-2.266-8.925l-13.957-80.658h197.647v-15H29.44c-7.962,0-14.44-6.478-14.44-14.44
	s6.478-14.439,14.44-14.439h206.557v-15H29.44C13.207,235.572,0,248.778,0,265.012c0,14.023,9.855,25.787,23.004,28.731
	l14.522,83.924c5.524,31.925,30.862,55.966,62.122,60.431l-9.895,36.235H84c-10.385,0-18.833,8.449-18.833,18.834S73.615,512,84,512
	h344c10.385,0,18.833-8.448,18.833-18.833s-8.449-18.834-18.833-18.834h-5.753l-9.895-36.235
	c31.26-4.465,56.598-28.506,62.122-60.431l14.522-83.924C502.145,290.799,512,279.035,512,265.012z M428,489.333
	c2.114,0,3.833,1.72,3.833,3.834c0,2.113-1.72,3.833-3.833,3.833H84c-2.114,0-3.833-1.72-3.833-3.833
	c0-2.114,1.72-3.834,3.833-3.834H428z M105.302,474.333l9.69-35.487h282.015l9.69,35.487H105.302z"/>
<path d="M38.5,196.277v26.796h15V195.26c3.61-1.061,6.978-2.693,10-4.79v32.602h15V63.281c0-6.462,5.257-11.719,11.719-11.719
	h39.615v7.123H244V20.042C244,8.991,235.009,0,223.958,0h-74.083c-8.022,0-14.958,4.738-18.158,11.563H89.969
	c-28.38,0-51.469,23.089-51.469,51.469v51.64h15v-51.64c0-20.109,16.36-36.469,36.469-36.469h39.865v10H90.219
	c-14.733,0-26.719,11.986-26.719,26.719v69.981c-5.624-3.905-12.449-6.195-19.799-6.195c-19.188,0-34.799,15.61-34.799,34.799
	C8.902,179.287,21.77,193.759,38.5,196.277z M149.875,15h74.083c2.78,0,5.042,2.262,5.042,5.042v23.644h-84.167V20.042
	C144.833,17.262,147.095,15,149.875,15z M43.701,142.067c10.917,0,19.799,8.882,19.799,19.799s-8.882,19.799-19.799,19.799
	s-19.799-8.882-19.799-19.799S32.784,142.067,43.701,142.067z"/>
<rect x="35.576" y="154.37" width="15" height="15"/>
<g>
</g>
<g>
</g>
<g>
</g>
<g>
</g>
<g>
</g>
<g>
</g>
<g>
</g>
<g>
</g>
<g>
</g>
<g>
</g>
<g>
</g>
<g>
</g>
<g>
</g>
<g>
</g>
<g>
</g>
</svg>
