<?xml version="1.0" encoding="iso-8859-1"?>
<!-- Generator: Adobe Illustrator 19.0.0, SVG Export Plug-In . SVG Version: 6.00 Build 0)  -->
<svg version="1.1" id="Capa_1" xmlns="http://www.w3.org/2000/svg" xmlns:xlink="http://www.w3.org/1999/xlink" x="0px" y="0px"
	 viewBox="0 0 512 512" style="enable-background:new 0 0 512 512;" xml:space="preserve">
<rect x="39.928" y="304.28" style="fill:#FFB655;" width="432.14" height="85.24"/>
<path style="fill:#57A4FF;" d="M7.5,268.411V389.52h32.428v-85.237h432.144v85.237H504.5V268.411
	c0-16.558-13.423-29.981-29.981-29.981H37.481C20.923,238.429,7.5,251.852,7.5,268.411z"/>
<rect x="67.52" y="87.61" style="fill:#FFB655;" width="376.97" height="150.82"/>
<g>
	<path style="fill:#FF7956;" d="M426.366,122.907H300.988c-8.279,0-14.991,6.712-14.991,14.991v85.542
		c0,8.279,6.711,14.991,14.991,14.991h125.377c8.279,0,14.991-6.712,14.991-14.991v-85.542
		C441.356,129.618,434.645,122.907,426.366,122.907z"/>
	<path style="fill:#FF7956;" d="M241.012,122.907H115.634c-8.279,0-14.991,6.712-14.991,14.991v85.542
		c0,8.279,6.712,14.991,14.991,14.991h125.377c8.279,0,14.991-6.712,14.991-14.991v-85.542
		C256.002,129.618,249.291,122.907,241.012,122.907z"/>
	<path style="fill:#FF7956;" d="M396.366,122.907H270.988c-8.279,0-14.991,6.712-14.991,14.991v85.542
		c0,8.279,6.711,14.991,14.991,14.991h125.377c8.279,0,14.991-6.712,14.991-14.991v-85.542
		C411.356,129.618,404.645,122.907,396.366,122.907z"/>
</g>
<g>
	<polygon style="fill:#EE8700;" points="88.607,424.392 39.928,424.392 39.928,389.52 102.774,389.52 	"/>
	<polygon style="fill:#EE8700;" points="423.393,424.392 472.072,424.392 472.072,389.52 409.226,389.52 	"/>
</g>
<rect x="39.928" y="304.28" style="fill:#FF7956;" width="30" height="85.24"/>
<g>
	<path style="fill:#006DF0;" d="M67.481,238.429h-30c-16.558,0-29.981,13.423-29.981,29.981v121.11h30V268.411
		C37.5,251.852,50.923,238.429,67.481,238.429z"/>
	<rect x="472.07" y="304.28" style="fill:#006DF0;" width="30" height="85.24"/>
</g>
<rect x="67.52" y="87.61" style="fill:#FF7956;" width="30" height="150.82"/>
<g>
	<path style="fill:#FF3F62;" d="M130.644,223.439v-85.542c0-8.279,6.711-14.991,14.991-14.991h-30
		c-8.279,0-14.991,6.711-14.991,14.991v85.542c0,8.279,6.711,14.991,14.991,14.991h30
		C137.355,238.429,130.644,231.718,130.644,223.439z"/>
	<path style="fill:#FF3F62;" d="M285.998,223.439v-85.542c0-8.279,6.711-14.991,14.991-14.991h-30
		c-8.279,0-14.991,6.711-14.991,14.991v85.542c0,8.279,6.711,14.991,14.991,14.991h30
		C292.709,238.429,285.998,231.718,285.998,223.439z"/>
</g>
<g>
	<rect x="39.928" y="389.52" style="fill:#FF5023;" width="30" height="34.872"/>
	<polygon style="fill:#FF5023;" points="409.226,389.52 423.393,424.392 453.393,424.392 439.226,389.52 	"/>
</g>
<rect x="357.83" y="353.52" width="15" height="15"/>
<rect x="382.83" y="353.52" width="15" height="15"/>
<rect x="407.83" y="353.52" width="15" height="15"/>
<rect x="432.83" y="353.52" width="15" height="15"/>
<path d="M474.519,230.929h-56.945c0.83-2.344,1.283-4.866,1.283-7.491v-85.542c0-12.401-10.089-22.491-22.491-22.491H270.988
	c-5.752,0-11.007,2.171-14.988,5.737c-3.981-3.565-9.236-5.737-14.988-5.737H115.634c-12.401,0-22.49,10.089-22.49,22.491v85.542
	c0,2.625,0.452,5.147,1.283,7.491H37.481C16.814,230.929,0,247.743,0,268.41v128.61h32.428v34.872h61.228l14.167-34.872h296.355
	l14.167,34.872h61.228V397.02H512V268.41C512,247.743,495.186,230.929,474.519,230.929z M270.988,130.406h125.377
	c4.13,0,7.491,3.36,7.491,7.491v42.995H381v15h22.856v27.547c0,4.13-3.36,7.491-7.491,7.491H270.988
	c-4.063,0-7.382-3.253-7.488-7.292c0.001-0.066,0.001-0.132,0.001-0.199v-85.542c0-0.066-0.001-0.132-0.001-0.199
	C263.606,133.66,266.925,130.406,270.988,130.406z M108.144,223.439v-6.823h19.794v-15h-19.794v-63.719
	c0-4.13,3.36-7.491,7.49-7.491h125.377c4.064,0,7.382,3.253,7.488,7.292c-0.001,0.066-0.001,0.132-0.001,0.199v85.542
	c0,0.066,0.001,0.132,0.001,0.199c-0.106,4.039-3.424,7.292-7.488,7.292H115.634C111.504,230.929,108.144,227.569,108.144,223.439z
	 M83.559,416.892H47.428V397.02h44.204L83.559,416.892z M47.428,382.02v-13.5h68.445v-15H47.428v-41.738h417.145v70.237H47.428
	V382.02z M464.572,416.892h-36.131l-8.073-19.872h44.204V416.892z M497,382.02h-17.428V274.411h-15v22.372H47.43v-22.372h-15v22.372
	h-0.002v85.237H15V268.41c0-12.396,10.085-22.481,22.481-22.481h437.038c12.396,0,22.481,10.085,22.481,22.481L497,382.02
	L497,382.02z"/>
<polygon points="75.017,121.058 95,121.058 95,106.058 75.017,106.058 75.017,95.108 436.983,95.108 436.983,218.429 
	451.983,218.429 451.983,80.108 60.017,80.108 60.017,218.429 75.017,218.429 "/>
<g>
	<rect x="190.77" y="148.6" style="fill:#FFFFFF;" width="15" height="15"/>
	<rect x="125.87" y="148.6" style="fill:#FFFFFF;" width="54.9" height="15"/>
	<rect x="215.77" y="148.6" style="fill:#FFFFFF;" width="15" height="15"/>
	<rect x="371.13" y="148.6" style="fill:#FFFFFF;" width="15" height="15"/>
	<rect x="346.13" y="148.6" style="fill:#FFFFFF;" width="15" height="15"/>
	<rect x="281.23" y="148.6" style="fill:#FFFFFF;" width="54.9" height="15"/>
	<rect x="299.9" y="263.45" style="fill:#FFFFFF;" width="97.19" height="15"/>
	<rect x="407.09" y="263.45" style="fill:#FFFFFF;" width="15" height="15"/>
	<rect x="432.09" y="263.45" style="fill:#FFFFFF;" width="15" height="15"/>
</g>
<g>
</g>
<g>
</g>
<g>
</g>
<g>
</g>
<g>
</g>
<g>
</g>
<g>
</g>
<g>
</g>
<g>
</g>
<g>
</g>
<g>
</g>
<g>
</g>
<g>
</g>
<g>
</g>
<g>
</g>
</svg>
