<?xml version="1.0" encoding="iso-8859-1"?>
<!-- Generator: Adobe Illustrator 19.0.0, SVG Export Plug-In . SVG Version: 6.00 Build 0)  -->
<svg version="1.1" id="Capa_1" xmlns="http://www.w3.org/2000/svg" xmlns:xlink="http://www.w3.org/1999/xlink" x="0px" y="0px"
	 viewBox="0 0 513.176 513.176" style="enable-background:new 0 0 513.176 513.176;" xml:space="preserve">
<g>
	<g>
		<path d="M512,7.984c-0.008-4.424-3.6-7.992-8.016-7.984l-496,1.176C3.568,1.184-0.008,4.776,0,9.192l1.176,496
			c0.008,4.424,3.6,7.992,8.016,7.984l496-1.176c4.416-0.008,7.992-3.6,7.984-8.016L512,7.984z M17.16,497.16l-1.136-480l480-1.136
			l1.136,480L17.16,497.16z"/>
	</g>
</g>
<g>
	<g>
		<path d="M448.52,224.136l-0.36-152c-0.008-4.424-3.6-7.992-8.016-7.984l-184,0.432l-184,0.44c-4.424,0.016-8,3.6-7.984,8.024
			l0.36,152l0.288,120l0.224,96c0.008,4.424,3.6,7.992,8.016,7.984l120-0.288c4.416-0.008,7.992-3.6,7.984-8.016l-0.04-16l128-0.304
			c13.232-0.032,23.976-10.824,23.944-24.056l-0.072-32l87.992-0.216c4.416-0.008,7.992-3.6,7.984-8.016L448.52,224.136z
			 M352.176,80.36l0.152,64c0.008,4.424,3.6,7.992,8.016,7.984c4.416-0.008,7.992-3.6,7.984-8.016l-0.152-64l64-0.152l0.32,136
			l-64,0.152l-0.056-24c-0.008-4.424-3.6-7.992-8.016-7.984c-4.416,0.008-7.992,3.6-7.984,8.016l0.056,24l-16,0.04l-48,0.112
			l-24,0.056l-0.32-136L352.176,80.36z M328.648,279.608c-18.24-3.672-32.048-19.8-32.096-39.12l-0.016-8l21.144-0.048l10.856-0.024
			L328.648,279.608z M248.496,216.608l-32,0.072l-0.016-7.992c-0.048-19.32,13.68-35.512,31.904-39.272L248.496,216.608z
			 M81.008,433.008l-0.192-80l32-0.072c4.416-0.008,7.992-3.6,7.984-8.016c-0.008-4.424-3.6-7.992-8.016-7.984l-32,0.08l-0.248-104
			l24.408-0.056l31.592-0.072l0.016,8c0.064,28.152,21.032,51.408,48.128,55.248l0.2,83.368l0.088,37.272l0.04,16L81.008,433.008z
			 M152.536,232.832l32-0.072l0.112,47.192c-18.24-3.672-32.048-19.8-32.096-39.12L152.536,232.832z M80.48,217.016l-0.32-136
			l64.016-0.16l0.072,32c0.008,4.424,3.6,7.992,8.016,7.984s7.992-3.6,7.984-8.016l-0.08-32l88-0.208l0.168,72.64
			c-27.08,3.968-47.936,27.32-47.872,55.472l0.016,8L80.48,217.016z M328.952,408.416l-128,0.304l-0.024-11.224l-0.064-28.776
			l136-0.32l0.072,32C336.944,404.816,333.368,408.408,328.952,408.416z M200.816,352.72l-0.048-19.568l-0.24-100.432l80-0.192
			l0.016,8c0.072,30.872,25.256,55.944,56.136,55.864c4.416-0.008,7.992-3.6,7.984-8.016l-0.136-56l16-0.04l72-0.168l0.288,120
			L200.816,352.72z"/>
	</g>
</g>
<g>
	<g>
		<path d="M448.952,408.144c-0.032-13.248-10.824-23.984-24.056-23.952l-32,0.08c-13.232,0.032-23.976,10.824-23.944,24.056
			l0.072,32c0.008,4.424,3.6,7.992,8.016,7.984l64-0.152c4.416-0.008,7.992-3.6,7.984-8.016L448.952,408.144z M385.008,432.288
			l-0.056-24c-0.008-4.416,3.568-8.008,7.984-8.016l32-0.08c4.408-0.008,8.008,3.568,8.016,7.984l0.056,24L385.008,432.288z"/>
	</g>
</g>
<g>
</g>
<g>
</g>
<g>
</g>
<g>
</g>
<g>
</g>
<g>
</g>
<g>
</g>
<g>
</g>
<g>
</g>
<g>
</g>
<g>
</g>
<g>
</g>
<g>
</g>
<g>
</g>
<g>
</g>
</svg>
