<svg height="480pt" viewBox="0 0 480 480" width="480pt" xmlns="http://www.w3.org/2000/svg"><path d="m24 8h432c8.835938 0 16 7.164062 16 16v128c0 8.835938-7.164062 16-16 16h-432c-8.835938 0-16-7.164062-16-16v-128c0-8.835938 7.164062-16 16-16zm0 0" fill="#bcbec0"/><path d="m200 440h-176c-8.835938 0-16 7.164062-16 16s7.164062 16 16 16h432c8.835938 0 16-7.164062 16-16s-7.164062-16-16-16zm0 0" fill="#58595b"/><path d="m288 88c0 26.507812-21.492188 48-48 48s-48-21.492188-48-48 21.492188-48 48-48 48 21.492188 48 48zm0 0" fill="#66a7f6"/><path d="m328 40h96v96h-96zm0 0" fill="#ffda44"/><path d="m56 40h96v96h-96zm0 0" fill="#ffda44"/><path d="m440 168v272h-160c30.929688 0 56-25.070312 56-56v-72c0-35.347656-28.652344-64-64-64h96v96h32v-128h-256v32h64c-35.347656 0-64 28.652344-64 64v72c0 30.929688 25.070312 56 56 56h-160v-272zm0 0" fill="#a7a9ac"/><path d="m336 384v-72c0-35.347656-28.652344-64-64-64h-64c-35.347656 0-64 28.652344-64 64v72c0 30.929688 25.070312 56 56 56h80c30.929688 0 56-25.070312 56-56zm0 0" fill="#ffe477"/><path d="m368 248v-32h-224v32zm0 0" fill="#58595b"/><path d="m368 344h32v-128h-32zm0 0" fill="#58595b"/><path d="m456 176c13.253906 0 24-10.746094 24-24v-128c0-13.253906-10.746094-24-24-24h-432c-13.253906 0-24 10.746094-24 24v128c0 13.253906 10.746094 24 24 24h8v256h-8c-13.253906 0-24 10.746094-24 24s10.746094 24 24 24h432c13.253906 0 24-10.746094 24-24s-10.746094-24-24-24h-8v-256zm-440-24v-128c0-4.417969 3.582031-8 8-8h432c4.417969 0 8 3.582031 8 8v128c0 4.417969-3.582031 8-8 8h-432c-4.417969 0-8-3.582031-8-8zm448 304c0 4.417969-3.582031 8-8 8h-432c-4.417969 0-8-3.582031-8-8s3.582031-8 8-8h432c4.417969 0 8 3.582031 8 8zm-312-72v-72c.035156-30.914062 25.085938-55.964844 56-56h64c30.914062.035156 55.964844 25.085938 56 56v72c-.03125 26.496094-21.503906 47.96875-48 48h-80c-26.496094-.03125-47.96875-21.503906-48-48zm224-136v-24h16v112h-16zm-16-8h-208v-16h208zm72 192h-109.808594c13.847656-12.109375 21.796875-29.605469 21.808594-48v-72c-.003906-21.769531-9.878906-42.363281-26.847656-56h42.847656v88c0 4.417969 3.582031 8 8 8h32c4.417969 0 8-3.582031 8-8v-128c0-4.417969-3.582031-8-8-8h-256c-4.417969 0-8 3.582031-8 8v32c0 4.417969 3.582031 8 8 8h18.847656c-16.96875 13.636719-26.84375 34.230469-26.847656 56v72c.011719 18.394531 7.960938 35.890625 21.808594 48h-109.808594v-256h384zm0 0"/><path d="m240 144c30.929688 0 56-25.070312 56-56s-25.070312-56-56-56-56 25.070312-56 56c.035156 30.914062 25.085938 55.964844 56 56zm0-96c22.089844 0 40 17.910156 40 40s-17.910156 40-40 40-40-17.910156-40-40c.027344-22.082031 17.917969-39.972656 40-40zm0 0"/><path d="m328 144h96c4.417969 0 8-3.582031 8-8v-96c0-4.417969-3.582031-8-8-8h-96c-4.417969 0-8 3.582031-8 8v96c0 4.417969 3.582031 8 8 8zm8-96h80v80h-80zm0 0"/><path d="m56 144h96c4.417969 0 8-3.582031 8-8v-96c0-4.417969-3.582031-8-8-8h-96c-4.417969 0-8 3.582031-8 8v96c0 4.417969 3.582031 8 8 8zm8-96h80v80h-80zm0 0"/></svg>