<svg height="480pt" viewBox="0 -72 480 480" width="480pt" xmlns="http://www.w3.org/2000/svg"><path d="m360 8h96c8.835938 0 16 7.164062 16 16v288c0 8.835938-7.164062 16-16 16h-96c-8.835938 0-16-7.164062-16-16v-288c0-8.835938 7.164062-16 16-16zm0 0" fill="#bcbec0"/><path d="m312 24v160c-.027344 8.824219-7.175781 15.972656-16 16h-120v64.480469c45.359375 2.558593 80 15.679687 80 31.519531 0 17.679688-42.960938 32-96 32s-96-14.320312-96-32c0-15.839844 34.640625-28.960938 80-31.519531v-64.480469h-120c-8.824219-.027344-15.972656-7.175781-16-16v-160c.027344-8.824219 7.175781-15.972656 16-16h272c8.824219.027344 15.972656 7.175781 16 16zm0 0" fill="#bcbec0"/><path d="m32 32h256v144h-256zm0 0" fill="#cce2fc"/><path d="m368 32h80v32h-80zm0 0" fill="#66a7f6"/><path d="m432 216c0 13.253906-10.746094 24-24 24s-24-10.746094-24-24 10.746094-24 24-24 24 10.746094 24 24zm0 0" fill="#d80027"/><path d="m368 272h80v32h-80zm0 0" fill="#ffda44"/><path d="m456 0h-96c-13.253906 0-24 10.746094-24 24v288c0 13.253906 10.746094 24 24 24h96c13.253906 0 24-10.746094 24-24v-288c0-13.253906-10.746094-24-24-24zm8 312c0 4.417969-3.582031 8-8 8h-96c-4.417969 0-8-3.582031-8-8v-288c0-4.417969 3.582031-8 8-8h96c4.417969 0 8 3.582031 8 8zm0 0"/><path d="m288 24h-256c-4.417969 0-8 3.582031-8 8v144c0 4.417969 3.582031 8 8 8h256c4.417969 0 8-3.582031 8-8v-144c0-4.417969-3.582031-8-8-8zm-8 144h-240v-128h240zm0 0"/><path d="m296 0h-272c-13.253906 0-24 10.746094-24 24v160c0 13.253906 10.746094 24 24 24h112v49.015625c-38.488281 3.242187-80 14.984375-80 38.984375 0 26.257812 52.320312 40 104 40s104-13.742188 104-40c0-24-41.511719-35.742188-80-38.984375v-49.015625h112c13.253906 0 24-10.746094 24-24v-160c0-13.253906-10.746094-24-24-24zm8 184c0 4.417969-3.582031 8-8 8h-120c-4.417969 0-8 3.582031-8 8v64.480469c-.007812 4.25 3.308594 7.761719 7.550781 8 48.242188 2.71875 72.449219 16.535156 72.449219 23.519531 0 8.152344-31.0625 24-88 24s-88-15.847656-88-24c0-6.984375 24.207031-20.800781 72.449219-23.535156 4.242187-.238282 7.558593-3.75 7.550781-8v-64.464844c0-4.417969-3.582031-8-8-8h-120c-4.417969 0-8-3.582031-8-8v-160c0-4.417969 3.582031-8 8-8h272c4.417969 0 8 3.582031 8 8zm0 0"/><path d="m448 24h-80c-4.417969 0-8 3.582031-8 8v32c0 4.417969 3.582031 8 8 8h80c4.417969 0 8-3.582031 8-8v-32c0-4.417969-3.582031-8-8-8zm-8 32h-64v-16h64zm0 0"/><path d="m440 216c0-17.671875-14.328125-32-32-32s-32 14.328125-32 32 14.328125 32 32 32 32-14.328125 32-32zm-48 0c0-8.835938 7.164062-16 16-16s16 7.164062 16 16-7.164062 16-16 16-16-7.164062-16-16zm0 0"/><path d="m448 264h-80c-4.417969 0-8 3.582031-8 8v32c0 4.417969 3.582031 8 8 8h80c4.417969 0 8-3.582031 8-8v-32c0-4.417969-3.582031-8-8-8zm-8 32h-64v-16h64zm0 0"/></svg>