<svg height="480pt" viewBox="-48 0 480 480" width="480pt" xmlns="http://www.w3.org/2000/svg"><path d="m360 24v80h-336v-80c.027344-8.824219 7.175781-15.972656 16-16h304c8.824219.027344 15.972656 7.175781 16 16zm0 0" fill="#bcbec0"/><path d="m48 456c0 8.835938 7.164062 16 16 16h256c8.835938 0 16-7.164062 16-16v-32h-288zm0 0" fill="#58595b"/><path d="m24 104h336c8.835938 0 16 7.164062 16 16v16c0 8.835938-7.164062 16-16 16h-336c-8.835938 0-16-7.164062-16-16v-16c0-8.835938 7.164062-16 16-16zm0 0" fill="#a7a9ac"/><path d="m360 152v256.078125c.003906 4.226563-1.675781 8.273437-4.660156 11.261719-2.988282 2.984375-7.035156 4.664062-11.261719 4.660156h-304.15625c-4.226563.003906-8.273437-1.675781-11.261719-4.660156-2.984375-2.988282-4.664062-7.035156-4.660156-11.261719v-256.078125zm0 0" fill="#bcbec0"/><path d="m160 40h64v32h-64zm0 0" fill="#66a7f6"/><path d="m136 56c0 8.835938-7.164062 16-16 16s-16-7.164062-16-16 7.164062-16 16-16 16 7.164062 16 16zm0 0" fill="#ffeb99"/><path d="m80 56c0 8.835938-7.164062 16-16 16s-16-7.164062-16-16 7.164062-16 16-16 16 7.164062 16 16zm0 0" fill="#ffda44"/><path d="m280 56c0 8.835938-7.164062 16-16 16s-16-7.164062-16-16 7.164062-16 16-16 16 7.164062 16 16zm0 0" fill="#ffeb99"/><path d="m336 56c0 8.835938-7.164062 16-16 16s-16-7.164062-16-16 7.164062-16 16-16 16 7.164062 16 16zm0 0" fill="#ffda44"/><path d="m368 97.472656v-73.472656c0-13.253906-10.746094-24-24-24h-304c-13.253906 0-24 10.746094-24 24v73.472656c-9.554688 3.378906-15.9570312 12.394532-16 22.527344v16c.0429688 10.132812 6.445312 19.148438 16 22.527344v249.535156c.035156 13.207031 10.730469 23.902344 23.9375 23.9375h.0625v24c0 13.253906 10.746094 24 24 24h256c13.253906 0 24-10.746094 24-24v-24h.0625c13.207031-.035156 23.902344-10.730469 23.9375-23.9375v-249.535156c9.554688-3.378906 15.957031-12.394532 16-22.527344v-16c-.042969-10.132812-6.445312-19.148438-16-22.527344zm-336-73.472656c0-4.417969 3.582031-8 8-8h304c4.417969 0 8 3.582031 8 8v72h-320zm296 432c0 4.417969-3.582031 8-8 8h-256c-4.417969 0-8-3.582031-8-8v-24h272zm24-47.9375c-.003906 4.382812-3.554688 7.933594-7.9375 7.9375h-304.125c-4.382812-.003906-7.933594-3.554688-7.9375-7.9375v-248.0625h320zm16-272.0625c0 4.417969-3.582031 8-8 8h-336c-4.417969 0-8-3.582031-8-8v-16c0-4.417969 3.582031-8 8-8h336c4.417969 0 8 3.582031 8 8zm0 0"/><path d="m264 408h16c4.417969 0 8-3.582031 8-8s-3.582031-8-8-8h-16c-4.417969 0-8 3.582031-8 8s3.582031 8 8 8zm0 0"/><path d="m312 408h24c4.417969 0 8-3.582031 8-8v-24c0-4.417969-3.582031-8-8-8s-8 3.582031-8 8v16h-16c-4.417969 0-8 3.582031-8 8s3.582031 8 8 8zm0 0"/><path d="m224 32h-64c-4.417969 0-8 3.582031-8 8v32c0 4.417969 3.582031 8 8 8h64c4.417969 0 8-3.582031 8-8v-32c0-4.417969-3.582031-8-8-8zm-8 32h-48v-16h48zm0 0"/><path d="m120 32c-13.253906 0-24 10.746094-24 24s10.746094 24 24 24 24-10.746094 24-24-10.746094-24-24-24zm0 32c-4.417969 0-8-3.582031-8-8s3.582031-8 8-8 8 3.582031 8 8-3.582031 8-8 8zm0 0"/><path d="m64 32c-13.253906 0-24 10.746094-24 24s10.746094 24 24 24 24-10.746094 24-24-10.746094-24-24-24zm0 32c-4.417969 0-8-3.582031-8-8s3.582031-8 8-8 8 3.582031 8 8-3.582031 8-8 8zm0 0"/><path d="m264 32c-13.253906 0-24 10.746094-24 24s10.746094 24 24 24 24-10.746094 24-24-10.746094-24-24-24zm0 32c-4.417969 0-8-3.582031-8-8s3.582031-8 8-8 8 3.582031 8 8-3.582031 8-8 8zm0 0"/><path d="m320 32c-13.253906 0-24 10.746094-24 24s10.746094 24 24 24 24-10.746094 24-24-10.746094-24-24-24zm0 32c-4.417969 0-8-3.582031-8-8s3.582031-8 8-8 8 3.582031 8 8-3.582031 8-8 8zm0 0"/></svg>