<?xml version="1.0"?>
<svg xmlns="http://www.w3.org/2000/svg" height="512px" viewBox="-88 0 480 480" width="512px" class=""><g><path d="m296 472v-464h-288v464zm-64-192c0-8.835938 7.164062-16 16-16s16 7.164062 16 16-7.164062 16-16 16-16-7.164062-16-16zm40 136v32zm-232-376h224v192h-224zm0 0" fill="#f285b9" data-original="#F285B9" class="active-path" style="fill:#B37A53" data-old_color="#B27952"/><path d="m264 40h-224v192h224zm-126.054688 30.054688-67.890624 67.890624zm81.933594-1.933594-135.757812 135.757812zm-53.824218 133.824218 67.890624-67.890624zm0 0" fill="#d1d3d4" data-original="#D1D3D4" class=""/><path d="m264 280c0 8.835938-7.164062 16-16 16s-16-7.164062-16-16 7.164062-16 16-16 16 7.164062 16 16zm0 0" fill="#d1d3d4" data-original="#D1D3D4" class=""/><path d="m296 0h-288c-4.417969 0-8 3.582031-8 8v464c0 4.417969 3.582031 8 8 8h288c4.417969 0 8-3.582031 8-8v-464c0-4.417969-3.582031-8-8-8zm-8 464h-272v-448h272zm0 0" data-original="#000000" class="" style="fill:#000000" data-old_color="#B69393"/><path d="m40 240h224c4.417969 0 8-3.582031 8-8v-192c0-4.417969-3.582031-8-8-8h-224c-4.417969 0-8 3.582031-8 8v192c0 4.417969 3.582031 8 8 8zm8-192h208v176h-208zm0 0" data-original="#000000" class="" style="fill:#000000" data-old_color="#B69393"/><path d="m272 280c0-13.253906-10.746094-24-24-24s-24 10.746094-24 24 10.746094 24 24 24 24-10.746094 24-24zm-32 0c0-4.417969 3.582031-8 8-8s8 3.582031 8 8-3.582031 8-8 8-8-3.582031-8-8zm0 0" data-original="#000000" class="" style="fill:#000000" data-old_color="#B69393"/><path d="m143.601562 64.398438c-3.125-3.121094-8.191406-3.121094-11.3125 0l-67.890624 67.890624c-2.078126 2.007813-2.914063 4.980469-2.179688 7.777344.730469 2.796875 2.917969 4.984375 5.714844 5.714844 2.796875.734375 5.769531-.101562 7.777344-2.179688l67.890624-67.890624c3.121094-3.121094 3.121094-8.1875 0-11.3125zm0 0" data-original="#000000" class="" style="fill:#000000" data-old_color="#B69393"/><path d="m228.289062 128.398438-67.890624 67.890624c-2.078126 2.007813-2.914063 4.980469-2.179688 7.777344.730469 2.796875 2.917969 4.984375 5.714844 5.714844 2.796875.734375 5.769531-.101562 7.777344-2.179688l67.890624-67.890624c2.078126-2.007813 2.914063-4.980469 2.179688-7.777344-.730469-2.796875-2.917969-4.984375-5.714844-5.714844-2.796875-.734375-5.769531.101562-7.777344 2.179688zm0 0" data-original="#000000" class="" style="fill:#000000" data-old_color="#B69393"/><path d="m225.535156 62.464844c-3.125-3.125-8.1875-3.125-11.3125 0l-135.757812 135.757812c-2.082032 2.011719-2.914063 4.984375-2.183594 7.78125.734375 2.796875 2.917969 4.980469 5.714844 5.714844 2.796875.730469 5.769531-.101562 7.78125-2.183594l135.757812-135.757812c3.125-3.125 3.125-8.1875 0-11.3125zm0 0" data-original="#000000" class="" style="fill:#000000" data-old_color="#B69393"/><path d="m264 416v24h-24c-4.417969 0-8 3.582031-8 8s3.582031 8 8 8h32c4.417969 0 8-3.582031 8-8v-32c0-4.417969-3.582031-8-8-8s-8 3.582031-8 8zm0 0" data-original="#000000" class="" style="fill:#000000" data-old_color="#B69393"/><path d="m216 440h-16c-4.417969 0-8 3.582031-8 8s3.582031 8 8 8h16c4.417969 0 8-3.582031 8-8s-3.582031-8-8-8zm0 0" data-original="#000000" class="" style="fill:#000000" data-old_color="#B69393"/></g> </svg>
