<?xml version="1.0" encoding="iso-8859-1"?>
<!-- Generator: Adobe Illustrator 19.0.0, SVG Export Plug-In . SVG Version: 6.00 Build 0)  -->
<svg version="1.1" id="Capa_1" xmlns="http://www.w3.org/2000/svg" xmlns:xlink="http://www.w3.org/1999/xlink" x="0px" y="0px"
	 viewBox="0 0 512.046 512.046" style="enable-background:new 0 0 512.046 512.046;" xml:space="preserve">
<g transform="translate(-1)">
	<g>
		<g>
			<path d="M478.199,151.549L366.814,20.426c-1.896-2.076-4.578-3.258-7.39-3.258c-2.812,0-5.494,1.182-7.39,3.258L240.631,151.549
				c-26.385,30.643-38.656,70.975-33.809,111.121c4.755,40.611,26.38,77.347,59.58,101.214l80.128,58.547
				c1.348,0.957,2.799,1.758,4.326,2.389v35.925H88.652c-0.618-0.007-1.208-0.259-1.64-0.7c-0.432-0.442-0.671-1.037-0.664-1.655
				V230.346c0-4.713-3.82-8.533-8.533-8.533s-8.533,3.821-8.533,8.533V458.39c0,10.706,8.664,19.394,19.371,19.422h262.229v8.533
				c0,4.713,3.82,8.533,8.533,8.533s8.533-3.82,8.533-8.533v-8.533h23.296c10.706-0.028,19.371-8.715,19.371-19.422v-23.245
				c0-4.713-3.82-8.533-8.533-8.533s-8.533,3.82-8.533,8.533v23.245c0.007,0.618-0.232,1.213-0.664,1.655
				c-0.432,0.442-1.022,0.694-1.64,0.7h-23.296V424.82c1.528-0.631,2.979-1.432,4.326-2.389l80.128-58.547
				c33.21-23.862,54.844-60.599,59.605-101.214C516.855,222.524,504.584,182.192,478.199,151.549z M495.095,260.665
				c-4.229,35.895-23.363,68.354-52.719,89.438l-74.428,54.323v-68.147l65.766-65.766c3.234-3.348,3.188-8.671-0.104-11.962
				c-3.292-3.292-8.614-3.338-11.962-0.104l-53.7,53.7v-69.734l48.7-48.7c3.234-3.348,3.188-8.671-0.104-11.962
				c-3.292-3.292-8.614-3.338-11.962-0.104l-36.634,36.634v-90.334c0-4.713-3.82-8.533-8.533-8.533s-8.533,3.82-8.533,8.533v90.334
				l-36.634-36.634c-3.348-3.234-8.671-3.188-11.962,0.104c-3.292,3.292-3.338,8.614-0.104,11.962l48.7,48.7v69.734l-53.7-53.7
				c-3.348-3.234-8.671-3.188-11.962,0.104c-3.292,3.292-3.338,8.614-0.104,11.962l65.766,65.766v68.147l-74.394-54.349
				c-29.363-21.071-48.509-53.521-52.753-89.412c-4.265-35.433,6.575-71.025,29.867-98.065L359.415,38.09l105.813,124.51
				C488.52,189.639,499.36,225.232,495.095,260.665z"/>
			<path d="M248.746,43.815l28.203,25.054c3.54,2.943,8.775,2.547,11.833-0.893s2.836-8.686-0.501-11.856l-28.356-25.199
				c-8.474-7.164-20.897-7.106-29.303,0.136L94.882,151.651V93.812c0-4.713-3.821-8.533-8.533-8.533s-8.533,3.82-8.533,8.533v68.267
				c0.025,1.34,0.373,2.655,1.016,3.831L3.882,232.47c-1.701,1.503-2.733,3.622-2.867,5.888s0.639,4.492,2.151,6.186
				c1.503,1.693,3.616,2.72,5.876,2.855c2.26,0.134,4.48-0.635,6.173-2.138L241.8,43.952
				C243.76,42.187,246.719,42.129,248.746,43.815z"/>
		</g>
	</g>
</g>
<g>
</g>
<g>
</g>
<g>
</g>
<g>
</g>
<g>
</g>
<g>
</g>
<g>
</g>
<g>
</g>
<g>
</g>
<g>
</g>
<g>
</g>
<g>
</g>
<g>
</g>
<g>
</g>
<g>
</g>
</svg>
