<?xml version="1.0" encoding="iso-8859-1"?>
<!-- Generator: Adobe Illustrator 19.0.0, SVG Export Plug-In . SVG Version: 6.00 Build 0)  -->
<svg version="1.1" id="Layer_1" xmlns="http://www.w3.org/2000/svg" xmlns:xlink="http://www.w3.org/1999/xlink" x="0px" y="0px"
	 viewBox="0 0 511.999 511.999" style="enable-background:new 0 0 511.999 511.999;" xml:space="preserve">
<g>
	<g>
		<path d="M492.38,158.048c-18.578-44.852-49.317-83.243-89.305-111.39C359.872,16.249,309.013,0.175,256,0.175
			c-123.612,0-229.441,88.124-251.636,209.539c-1.012,5.537,2.656,10.847,8.194,11.859c0.62,0.113,1.236,0.168,1.845,0.168
			c4.827-0.001,9.116-3.444,10.015-8.361C44.841,101.652,142.236,20.559,256,20.559c94.14,0,180.005,57.182,216.697,143.264
			l-19.216,5.639l44.129,42.084l14.389-59.257L492.38,158.048z"/>
	</g>
</g>
<g>
	<g>
		<path d="M499.444,290.428c-5.539-1.013-10.847,2.654-11.86,8.192c-0.465,2.543-0.979,5.116-1.53,7.648
			c-1.196,5.5,2.294,10.929,7.795,12.125c0.73,0.159,1.457,0.234,2.175,0.234c4.691,0,8.913-3.258,9.95-8.029
			c0.597-2.751,1.157-5.547,1.662-8.309C508.649,296.751,504.981,291.441,499.444,290.428z"/>
	</g>
</g>
<g>
	<g>
		<path d="M489.506,333.09c-5.266-1.983-11.147,0.676-13.133,5.942C442.011,430.193,353.45,491.441,256,491.441
			c-94.14,0-180.005-57.182-216.697-143.264l19.216-5.639l-44.129-42.084L0,359.71l19.619-5.758
			c18.578,44.852,49.317,83.243,89.305,111.39c43.203,30.409,94.061,46.482,147.075,46.482c53.037,0,103.913-16.086,147.127-46.519
			c42.245-29.75,74.169-70.93,92.321-119.084C497.433,340.955,494.772,335.075,489.506,333.09z"/>
	</g>
</g>
<g>
	<g>
		<path d="M424.675,203.989L262.673,63.645c-3.83-3.319-9.517-3.319-13.348,0L87.324,203.989c-3.217,2.786-4.363,7.278-2.876,11.265
			s5.294,6.631,9.55,6.631h37.257V397.34c0,5.628,4.563,10.191,10.192,10.191h229.105c5.629,0,10.192-4.564,10.192-10.192V221.886
			h37.257c4.255,0,8.063-2.644,9.55-6.631C429.038,211.267,427.892,206.777,424.675,203.989z M370.552,201.501
			c-5.629,0-10.192,4.564-10.192,10.192v175.454H151.639V211.693c0-5.628-4.563-10.192-10.192-10.192h-20.118L256,84.834
			l134.671,116.667H370.552z"/>
	</g>
</g>
<g>
	<g>
		<path d="M306.152,223.012H205.848c-5.629,0-10.192,4.564-10.192,10.192v104.864c0,5.628,4.563,10.192,10.192,10.192h100.305
			c5.629,0,10.192-4.564,10.192-10.192V233.204C316.345,227.576,311.782,223.012,306.152,223.012z M295.96,327.876h-79.92v-84.479
			h79.92V327.876z"/>
	</g>
</g>
<g>
</g>
<g>
</g>
<g>
</g>
<g>
</g>
<g>
</g>
<g>
</g>
<g>
</g>
<g>
</g>
<g>
</g>
<g>
</g>
<g>
</g>
<g>
</g>
<g>
</g>
<g>
</g>
<g>
</g>
</svg>
