<?xml version="1.0" encoding="iso-8859-1"?>
<!-- Generator: Adobe Illustrator 19.0.0, SVG Export Plug-In . SVG Version: 6.00 Build 0)  -->
<svg version="1.1" id="Capa_1" xmlns="http://www.w3.org/2000/svg" xmlns:xlink="http://www.w3.org/1999/xlink" x="0px" y="0px"
	 viewBox="0 0 512 512" style="enable-background:new 0 0 512 512;" xml:space="preserve">
<rect x="233.997" y="233.577" style="fill:#E0E0E2;" width="270.474" height="270.874"/>
<g>
	<circle style="fill:#C6C5CA;" cx="318.089" cy="258.255" r="18.048"/>
	<circle style="fill:#C6C5CA;" cx="460.385" cy="258.255" r="18.048"/>
	<rect x="233.997" y="233.577" style="fill:#C6C5CA;" width="29.997" height="270.874"/>
</g>
<rect x="233.997" y="282.742" style="fill:#787680;" width="270.474" height="193.241"/>
<rect x="292.021" y="335.977" style="fill:#57565C;" width="214.419" height="117.189"/>
<rect x="262.024" y="335.977" style="fill:#D1E7F8;" width="214.419" height="117.189"/>
<g>
	<circle style="fill:#787680;" cx="298.091" cy="258.255" r="18.048"/>
	<circle style="fill:#787680;" cx="440.387" cy="258.255" r="18.048"/>
</g>
<g>
	<rect x="233.997" y="184.072" style="fill:#C6C5CA;" width="270.474" height="49.505"/>
	<rect x="7.524" y="68.433" style="fill:#C6C5CA;" width="226.478" height="168.854"/>
</g>
<rect x="133.547" y="110.859" style="fill:#898890;" width="33.396" height="66.791"/>
<rect x="7.524" y="237.287" style="fill:#C6C5CA;" width="226.478" height="252.315"/>
<g>
	<rect x="52.928" y="97.93" style="fill:#898890;" width="29.157" height="109.859"/>
	<rect x="52.928" y="266.784" style="fill:#898890;" width="29.157" height="194.211"/>
</g>
<g>
	<rect x="37.929" y="97.93" style="fill:#E0E0E2;" width="29.157" height="109.859"/>
	<rect x="37.929" y="266.784" style="fill:#E0E0E2;" width="29.157" height="194.211"/>
</g>
<rect x="113.549" y="110.859" style="fill:#B3D8F4;" width="33.396" height="66.791"/>
<path style="fill:#C6C5CA;" d="M504.476,134.907H236.452v-19.37c10.829-10.829,16.9-16.9,27.73-27.73h212.563
	c10.829,10.829,16.9,16.9,27.73,27.73V134.907z"/>
<rect x="339.637" y="7.499" style="fill:#787680;" width="61.654" height="80.302"/>
<rect x="233.997" y="282.742" style="fill:#57565C;" width="29.997" height="193.241"/>
<rect x="262.024" y="335.977" style="fill:#9BC9FF;" width="29.997" height="117.189"/>
<g>
	<path style="fill:#57565C;" d="M300.035,258.258c0-6.269,3.197-11.792,8.049-15.028c-2.863-1.909-6.3-3.021-9.999-3.021
		c-9.968,0-18.048,8.081-18.048,18.048c0,9.968,8.08,18.048,18.048,18.048c3.699,0,7.136-1.113,9.999-3.021
		C303.232,270.05,300.035,264.527,300.035,258.258z"/>
	<path style="fill:#57565C;" d="M442.336,258.258c0-6.269,3.197-11.792,8.049-15.028c-2.863-1.909-6.3-3.021-9.999-3.021
		c-9.968,0-18.048,8.081-18.048,18.048c0,9.968,8.08,18.048,18.048,18.048c3.699,0,7.136-1.113,9.999-3.021
		C445.533,270.05,442.336,264.527,442.336,258.258z"/>
</g>
<g>
	<rect x="233.997" y="184.072" style="fill:#898890;" width="29.997" height="49.505"/>
	<rect x="7.524" y="68.433" style="fill:#898890;" width="29.997" height="168.854"/>
	<rect x="7.524" y="237.287" style="fill:#898890;" width="29.997" height="252.315"/>
</g>
<g>
	<rect x="37.929" y="97.93" style="fill:#C6C5CA;" width="14.999" height="109.859"/>
	<rect x="37.929" y="266.784" style="fill:#C6C5CA;" width="14.999" height="194.211"/>
</g>
<rect x="113.549" y="110.859" style="fill:#57A4FF;" width="19.998" height="66.791"/>
<polygon style="fill:#898890;" points="294.179,87.806 264.182,87.806 236.452,115.537 236.452,134.907 266.449,134.907 
	266.449,115.537 "/>
<rect x="339.637" y="7.499" style="fill:#57565C;" width="29.997" height="80.302"/>
<g>
	<rect x="418.789" y="351.796" style="fill:#FFFFFF;" width="14.999" height="14.999"/>
	<rect x="443.787" y="351.796" style="fill:#FFFFFF;" width="14.999" height="14.999"/>
	<rect x="347.876" y="351.796" style="fill:#FFFFFF;" width="60.92" height="14.999"/>
</g>
<path d="M254.526,460.67h229.42V328.48h-229.42V460.67z M269.525,343.478h199.423v102.193H269.525V343.478z"/>
<path d="M253.995,191.573h242.981v34.503h-23.614V202.48h-25.637v14.999h10.638v8.598H422.41v-8.598h11.638V202.48h-26.636v23.597
	h-76.35V202.48h-25.637v14.999h10.638v8.598h-35.954v-8.598h11.638V202.48H265.11v23.597h-11.115v14.999h25.185
	c-4.289,4.708-6.64,10.767-6.64,17.179c0,6.331,2.286,12.311,6.46,16.989h-25.005v14.999h242.981v178.239H253.995v14.999h242.981
	v13.472H253.995v14.999h257.98V176.575h-257.98V191.573z M440.382,268.804c-5.799-0.01-10.529-4.74-10.549-10.549
	c0.02-5.799,4.75-10.539,10.549-10.549c5.809,0.01,10.539,4.75,10.559,10.549C450.921,264.064,446.191,268.794,440.382,268.804z
	 M308.635,258.255c-0.01,5.809-4.74,10.539-10.549,10.549c-5.809-0.01-10.539-4.74-10.549-10.549
	c0.01-5.799,4.74-10.539,10.549-10.549C303.895,247.716,308.625,252.455,308.635,258.255z M316.992,241.075h104.491
	c-4.296,4.708-6.639,10.767-6.649,17.179c0.01,6.331,2.288,12.311,6.468,16.989h-104.13c4.174-4.679,6.46-10.658,6.46-16.989
	C323.633,251.841,321.281,245.783,316.992,241.075z M496.976,275.244h-37.507c4.174-4.679,6.46-10.658,6.47-16.989
	c-0.01-6.412-2.363-12.472-6.651-17.179h37.688L496.976,275.244L496.976,275.244z"/>
<rect x="323.828" y="301.071" width="90.821" height="14.999"/>
<rect x="386.572" y="249.976" width="14.999" height="14.999"/>
<rect x="336.577" y="249.976" width="14.999" height="14.999"/>
<rect x="361.575" y="249.976" width="14.999" height="14.999"/>
<rect x="414.669" y="103.36" width="14.999" height="14.999"/>
<rect x="389.672" y="103.36" width="14.999" height="14.999"/>
<rect x="439.667" y="103.36" width="14.999" height="14.999"/>
<path d="M30.43,215.293h44.156V90.436H30.43C30.43,90.436,30.43,215.293,30.43,215.293z M45.429,105.435h14.159v94.86H45.429
	V105.435z"/>
<path d="M74.586,259.289H30.43v209.206h44.156V259.289z M59.587,453.497H45.429v-179.21h14.159V453.497z"/>
<path d="M106.045,185.092l48.395,0.05V103.41l-48.395-0.05V185.092z M121.043,170.143v-18.436l18.398,0.027v18.409L121.043,170.143
	L121.043,170.143z M139.441,118.358v18.398h-18.398v-18.398H139.441z"/>
<g>
	<rect x="197.041" y="94.251" style="fill:#FFFFFF;" width="14.999" height="14.999"/>
	<rect x="197.041" y="119.248" style="fill:#FFFFFF;" width="14.999" height="14.999"/>
	<rect x="197.041" y="144.246" style="fill:#FFFFFF;" width="14.999" height="67.223"/>
	<rect x="197.881" y="259.285" style="fill:#FFFFFF;" width="14.999" height="14.999"/>
	<rect x="100.97" y="259.285" style="fill:#FFFFFF;" width="61.917" height="14.999"/>
	<rect x="172.883" y="259.285" style="fill:#FFFFFF;" width="14.999" height="14.999"/>
</g>
<rect x="371.824" y="23.906" width="14.999" height="47.495"/>
<path d="M479.852,80.307H261.076l-19.58,19.58V60.939H0.025V497.11h30.277v14.84L45.301,512v-14.89h149.855v14.84l14.999,0.05
	v-14.89h31.342V142.406h270.479V112.43L479.852,80.307z M226.498,445.671H113.544v14.999h112.954v21.442H15.024V244.79h211.474
	V445.671z M15.024,229.792V75.938h211.474v153.854H15.024z M496.976,127.408H243.952v-8.765l23.337-23.337h206.352l23.337,23.337
	v8.765H496.976z"/>
<polygon points="347.134,14.999 393.795,14.999 393.795,67.808 408.793,67.808 408.793,0 332.136,0 332.136,67.808 347.134,67.808 
	"/>
<g>
</g>
<g>
</g>
<g>
</g>
<g>
</g>
<g>
</g>
<g>
</g>
<g>
</g>
<g>
</g>
<g>
</g>
<g>
</g>
<g>
</g>
<g>
</g>
<g>
</g>
<g>
</g>
<g>
</g>
</svg>
