<svg height="480pt" viewBox="-96 0 480 480" width="480pt" xmlns="http://www.w3.org/2000/svg"><path d="m280 144c.105469-59.328125-38.261719-111.875-94.800781-129.847656-56.539063-17.972656-118.207031 2.78125-152.375 51.277344-34.171875 48.5-32.960938 113.554687 2.992187 160.746093l44.183594 117.824219h128l44.183594-117.824219c18.046875-23.59375 27.824218-52.472656 27.816406-82.175781zm0 0" fill="#fdbd40"/><path d="m48 344h192v96h-192zm0 0" fill="#7aa1bc"/><path d="m192 472h-96c-17.671875 0-32-14.328125-32-32h160c0 17.671875-14.328125 32-32 32zm0 0" fill="#aabece"/><path d="m48 368h88v16h-88zm0 0" fill="#394d5c"/><path d="m160 352c-.445312 0-.890625-.035156-1.328125-.113281-4.355469-.730469-7.296875-4.851563-6.566406-9.207031l21.664062-129.976563-26.800781 10.730469c-1.914062.75-4.039062.75-5.953125 0l-26.800781-10.730469 21.664062 129.976563c.550782 2.851562-.492187 5.777343-2.71875 7.640624-2.222656 1.867188-5.285156 2.378907-7.996094 1.339844-2.714843-1.039062-4.648437-3.464844-5.058593-6.339844l-24-144c-.480469-2.851562.617187-5.742187 2.871093-7.554687 2.25-1.816406 5.308594-2.273437 7.992188-1.199219l37.03125 14.816406 37.023438-14.816406c2.6875-1.074218 5.742187-.617187 7.992187 1.199219 2.253906 1.8125 3.351563 4.703125 2.871094 7.554687l-24 144c-.644531 3.855469-3.980469 6.679688-7.886719 6.679688zm0 0" fill="#e1462b"/><path d="m48 408h192v32h-192zm0 0" fill="#394d5c"/><path d="m208 88h16v16h-16zm0 0" fill="#fff"/><path d="m184 120h16v16h-16zm0 0" fill="#fff"/><path d="m288 144c0-79.527344-64.472656-144-144-144s-144 64.472656-144 144c-.0507812 31.054688 10.039062 61.277344 28.734375 86.070312l39.722656 105.929688h-20.457031c-4.417969 0-8 3.582031-8 8v104h16.800781c3.828125 18.613281 20.199219 31.976562 39.199219 32h96c19-.023438 35.371094-13.386719 39.199219-32h16.800781v-104c0-4.417969-3.582031-8-8-8h-20.457031l39.722656-105.929688c18.695313-24.792968 28.785156-55.015624 28.734375-86.070312zm-96 320h-96c-10.167969-.011719-19.230469-6.417969-22.632812-16h141.265624c-3.402343 9.582031-12.464843 15.988281-22.632812 16zm40-32h-176v-16h176zm0-80v48h-176v-16h80v-16h-80v-16zm-97.222656-16-20.554688-123.296875 26.800782 10.730469c1.914062.75 4.039062.75 5.953124 0l26.800782-10.730469-20.554688 123.296875zm109.910156-112.632812-42.230469 112.632812h-33.015625l22.445313-134.679688c.480469-2.851562-.617188-5.742187-2.871094-7.554687-2.25-1.816406-5.304687-2.273437-7.992187-1.199219l-37.023438 14.816406-37.023438-14.816406c-2.683593-1.074218-5.742187-.617187-7.992187 1.199219-2.253906 1.8125-3.351563 4.703125-2.871094 7.554687l22.445313 134.679688h-33.015625l-42.230469-112.632812c-.277344-.726563-.65625-1.410157-1.128906-2.03125-17.015625-22.1875-26.222656-49.375-26.183594-77.335938 0-70.691406 57.308594-128 128-128s128 57.308594 128 128c.039062 27.960938-9.167969 55.148438-26.183594 77.335938-.472656.621093-.851562 1.304687-1.128906 2.03125zm0 0"/><path d="m208 88h16v16h-16zm0 0"/><path d="m184 120h16v16h-16zm0 0"/></svg>