<?xml version="1.0"?>
<svg xmlns="http://www.w3.org/2000/svg" height="512px" viewBox="-52 0 512 512.00002" width="512px" class=""><g><path d="m173.441406 501.851562h-134.324218c-16.597657 0-30.050782-13.453124-30.050782-30.050781v-270.808593c0-16.597657 13.453125-30.050782 30.050782-30.050782h327.414062c16.59375 0 30.046875 13.453125 30.046875 30.050782v270.808593c0 16.597657-13.453125 30.050781-30.046875 30.050781h-127.367188" fill="#cec5c2" data-original="#CEC5C2" class="" style="fill:#F4E80D" data-old_color="#CEC5C2"/><path d="m63.09375 170.941406c0-88.734375 63.828125-160.925781 142.277344-160.925781 78.449218 0 142.273437 72.191406 142.273437 160.925781" fill="#5a5a5a" data-original="#5A5A5A" class="active-path" style="fill:#3B3737" data-old_color="#5A5A5A"/><path d="m283.703125 169.941406c0-53.476562-35.140625-96.984375-78.332031-96.984375s-78.332032 43.507813-78.332032 96.984375" fill="#fff" data-original="#FFF" class=""/><path d="m243.921875 299.746094c0-9.738282-3.609375-18.632813-9.566406-25.417969-6.957031-7.925781-17.113281-12.976563-28.453125-13.128906-12.679688-.171875-24.113282 5.960937-31.289063 15.453125-4.855469 6.417968-7.761719 14.375-7.792969 22.953125-.050781 13.484375 6.832032 25.363281 17.277344 32.289062v59.070313c0 11.394531 9.238282 20.632812 20.632813 20.632812 11.398437 0 20.632812-9.238281 20.632812-20.632812v-58.253906c11.128907-6.761719 18.558594-18.996094 18.558594-32.964844zm0 0" fill="#fff" data-original="#FFF" class=""/><path d="m367.480469 160.925781h-10.085938c-4.636719-89.613281-71.046875-160.925781-152.023437-160.925781-80.976563 0-147.386719 71.3125-152.023438 160.925781h-13.28125c-22.09375 0-40.066406 17.972657-40.066406 40.066407v270.808593c0 22.09375 17.972656 40.066407 40.066406 40.066407h121.636719c5.53125 0 10.015625-4.484376 10.015625-10.015626s-4.484375-10.015624-10.015625-10.015624h-121.636719c-11.046875 0-20.035156-8.988282-20.035156-20.035157v-79.054687h56.867188c5.535156 0 10.019531-4.484375 10.019531-10.015625s-4.484375-10.015625-10.019531-10.015625h-56.867188v-63.636719h17.46875c5.535156 0 10.019531-4.484375 10.019531-10.015625s-4.484375-10.015625-10.019531-10.015625h-17.46875v-88.054687c0-11.046876 8.988281-20.035157 20.035156-20.035157h327.414063c11.046875 0 20.03125 8.988281 20.03125 20.035157v88.054687h-57.429688c-5.53125 0-10.015625 4.484375-10.015625 10.015625s4.484375 10.015625 10.015625 10.015625h57.429688v63.636719h-56.429688c-5.53125 0-10.015625 4.484375-10.015625 10.015625s4.484375 10.015625 10.015625 10.015625h56.429688v79.054687c0 11.046875-8.984375 20.035157-20.03125 20.035157h-125.3125c-5.53125 0-10.015625 4.484374-10.015625 10.015624s4.484375 10.015626 10.015625 10.015626h125.3125c22.089843 0 40.0625-17.972657 40.0625-40.066407v-270.808593c0-22.09375-17.972657-40.066407-40.0625-40.066407zm-162.109375-140.894531c69.976562 0 127.425781 62.335938 131.960937 140.894531h-43.929687c-3.792969-54.796875-41.824219-97.984375-88.03125-97.984375-46.210938 0-84.242188 43.1875-88.03125 97.984375h-43.929688c4.535156-78.558593 61.984375-140.894531 131.960938-140.894531zm67.949218 140.894531h-135.898437c3.554687-43.730469 32.671875-77.949219 67.949219-77.949219s64.394531 34.214844 67.949218 77.949219zm0 0" data-original="#000000" class="" style="fill:#000000"/><path d="m235.382812 337.945312c11.714844-9.160156 18.554688-23.0625 18.554688-38.199218 0-11.792969-4.28125-23.164063-12.050781-32.023438-9.0625-10.324218-22.128907-16.355468-35.847657-16.539062-15.34375-.222656-30.058593 7.054687-39.417968 19.425781-6.382813 8.445313-9.78125 18.460937-9.816406 28.960937-.054688 14.515626 6.316406 28.101563 17.277343 37.320313v54.074219c0 16.902344 13.75 30.648437 30.652344 30.648437 16.898437 0 30.648437-13.75 30.648437-30.648437zm-15.21875-13.792968c-2.988281 1.816406-4.8125 5.0625-4.8125 8.558594v58.253906c0 5.851562-4.765624 10.617187-10.617187 10.617187-5.855469 0-10.617187-4.765625-10.617187-10.617187v-59.070313c0-3.359375-1.683594-6.492187-4.480469-8.347656-8.050781-5.335937-12.835938-14.273437-12.800781-23.90625.023437-6.128906 2.015624-11.988281 5.765624-16.945313 5.453126-7.210937 13.949219-11.484374 22.792969-11.484374.125 0 .25 0 .371094.003906 8.058594.109375 15.734375 3.652344 21.0625 9.71875 4.5625 5.203125 7.074219 11.882812 7.074219 18.8125.003906 10.050781-5.132813 19.175781-13.738282 24.40625zm0 0" data-original="#000000" class="" style="fill:#000000"/><path d="m212 497.957031c-2.078125-5.125-7.917969-7.597656-13.042969-5.519531-5.128906 2.078125-7.601562 7.917969-5.523437 13.042969l.105468.261719c1.578126 3.894531 5.328126 6.257812 9.285157 6.257812 1.253906 0 2.527343-.238281 3.757812-.734375 5.128907-2.078125 7.601563-7.917969 5.523438-13.046875zm0 0" data-original="#000000" class="" style="fill:#000000"/><path d="m73.152344 289.644531c-5.128906 2.066407-7.609375 7.902344-5.542969 13.035157l.105469.257812c1.574218 3.902344 5.328125 6.273438 9.292968 6.273438 1.246094 0 2.515626-.234376 3.742188-.730469 5.132812-2.070313 7.613281-7.90625 5.542969-13.035157l-.105469-.261718c-2.070312-5.128906-7.90625-7.613282-13.035156-5.539063zm0 0" data-original="#000000" class="" style="fill:#000000"/></g> </svg>
