<?xml version="1.0"?>
<svg xmlns="http://www.w3.org/2000/svg" xmlns:xlink="http://www.w3.org/1999/xlink" version="1.1" id="Capa_1" x="0px" y="0px" viewBox="0 0 512 512" style="enable-background:new 0 0 512 512;" xml:space="preserve" width="512px" height="512px" class=""><g transform="matrix(1 0 0 1 0 0)"><g>
	<g>
		<g>
			<path d="M247.594,89.438c-4.01,5.135-98.26,126.813-98.26,208.604c0,55.482,42.25,100.733,96,106.207v33.085     c0,5.896,4.771,10.667,10.667,10.667s10.667-4.771,10.667-10.667v-33.085c53.75-5.474,96-50.725,96-106.207     c0-81.792-94.25-203.469-98.26-208.604C260.365,84.25,251.635,84.25,247.594,89.438z M245.333,382.913     c-41.979-5.358-74.667-41.155-74.667-84.871c0-6.444,0.827-13.283,2.098-20.301l72.569,58.059V382.913z M245.333,308.475     l-66.816-53.465c4.701-14.801,11.117-30.048,18.464-44.973l48.353,40.298V308.475z M245.333,222.557l-38.26-31.892     c13.072-23.885,27.25-45.756,38.26-61.721V222.557z M266.667,128.944c11.01,15.965,25.189,37.836,38.26,61.721l-38.26,31.892     V128.944z M266.667,250.336l48.353-40.298c7.346,14.924,13.763,30.172,18.464,44.973l-66.816,53.465V250.336z M266.667,335.799     l72.569-58.059c1.271,7.018,2.098,13.857,2.098,20.301c0,43.716-32.688,79.513-74.667,84.871V335.799z" data-original="#000000" class="active-path" fill="#000000"/>
			<path d="M494.771,295.688C502.854,284.281,512,271.354,512,256s-9.146-28.281-17.229-39.688     c-5.302-7.49-10.313-14.563-12.052-21.063c-1.854-6.969-1.052-15.885-0.208-25.333c1.292-14.333,2.615-29.167-4.781-41.948     c-7.5-12.979-21.74-19.542-34.302-25.323c-8.51-3.927-16.542-7.625-21.49-12.573c-4.948-4.948-8.646-12.99-12.573-21.49     c-5.792-12.563-12.354-26.802-25.323-34.302c-12.802-7.406-27.625-6.063-41.958-4.792c-9.448,0.833-18.354,1.635-25.323-0.208     c-6.51-1.74-13.583-6.75-21.073-12.052C284.281,9.146,271.354,0,256,0s-28.281,9.146-39.688,17.229     c-7.49,5.302-14.563,10.313-21.063,12.052c-6.99,1.844-15.906,1.042-25.333,0.208c-14.323-1.281-29.146-2.625-41.948,4.781     c-12.979,7.5-19.542,21.74-25.323,34.302c-3.927,8.51-7.625,16.542-12.573,21.49c-4.948,4.948-12.99,8.646-21.49,12.573     c-12.563,5.792-26.802,12.354-34.302,25.323c-7.396,12.781-6.073,27.615-4.792,41.958c0.854,9.438,1.646,18.365-0.208,25.323     c-1.74,6.51-6.75,13.583-12.052,21.073C9.146,227.719,0,240.646,0,256s9.146,28.281,17.229,39.688     c5.302,7.49,10.313,14.563,12.052,21.063c1.854,6.969,1.052,15.885,0.208,25.333c-1.292,14.333-2.615,29.167,4.781,41.948     c7.5,12.979,21.74,19.542,34.302,25.323c8.51,3.927,16.542,7.625,21.49,12.573c4.948,4.948,8.646,12.99,12.573,21.49     c5.792,12.563,12.354,26.802,25.323,34.302c12.792,7.396,27.615,6.063,41.958,4.792c9.427-0.865,18.344-1.667,25.323,0.208     c6.51,1.74,13.583,6.75,21.073,12.052C227.719,502.854,240.646,512,256,512s28.281-9.146,39.688-17.229     c7.49-5.302,14.563-10.313,21.063-12.052c6.948-1.875,15.885-1.073,25.333-0.208c14.323,1.292,29.146,2.635,41.948-4.781     c12.979-7.5,19.542-21.74,25.323-34.302c3.927-8.51,7.625-16.542,12.573-21.49c4.948-4.948,12.99-8.646,21.49-12.573     c12.563-5.792,26.802-12.354,34.302-25.323c7.396-12.781,6.073-27.615,4.792-41.958c-0.854-9.438-1.646-18.365,0.208-25.323     C484.458,310.25,489.469,303.177,494.771,295.688z M477.365,283.354c-6.156,8.698-12.521,17.698-15.25,27.896     c-2.833,10.615-1.833,21.865-0.854,32.74c1.031,11.542,2.01,22.438-2,29.365c-4.125,7.115-14.156,11.74-24.771,16.635     c-9.833,4.531-20,9.219-27.646,16.865c-7.646,7.646-12.333,17.813-16.865,27.646c-4.885,10.615-9.51,20.646-16.635,24.771     c-6.938,4.01-17.844,3.021-29.354,1.99c-10.896-0.99-22.125-2-32.75,0.854c-10.188,2.729-19.188,9.094-27.885,15.25     c-9.656,6.844-18.792,13.302-27.354,13.302s-17.698-6.458-27.354-13.302c-8.698-6.156-17.698-12.521-27.896-15.25     c-5.198-1.396-10.552-1.854-15.938-1.854c-5.615,0-11.25,0.5-16.802,1c-11.552,1.042-22.427,2.01-29.365-2     c-7.115-4.125-11.74-14.156-16.635-24.771c-4.531-9.833-9.219-20-16.865-27.646C97.5,399.198,87.333,394.51,77.5,389.979     c-10.615-4.885-20.646-9.51-24.771-16.635c-4.01-6.927-3.031-17.823-1.99-29.354c0.979-10.875,1.979-22.125-0.854-32.75     c-2.729-10.188-9.094-19.188-15.25-27.885c-6.844-9.656-13.302-18.792-13.302-27.354s6.458-17.698,13.302-27.354     c6.156-8.698,12.521-17.698,15.25-27.896c2.833-10.615,1.833-21.865,0.854-32.74c-1.031-11.542-2.01-22.438,2-29.365     c4.125-7.115,14.156-11.74,24.771-16.635c9.833-4.531,20-9.219,27.646-16.865c7.646-7.646,12.333-17.813,16.865-27.646     c4.885-10.615,9.51-20.646,16.635-24.771c6.906-4.021,17.802-3.052,29.354-1.99c10.865,0.979,22.104,1.99,32.75-0.854     c10.188-2.729,19.188-9.094,27.885-15.25c9.656-6.844,18.792-13.302,27.354-13.302s17.698,6.458,27.354,13.302     c8.698,6.156,17.698,12.521,27.896,15.25c10.604,2.844,21.844,1.833,32.74,0.854c11.573-1.01,22.448-2,29.365,2     c7.115,4.125,11.74,14.156,16.635,24.771c4.531,9.833,9.219,20,16.865,27.646s17.813,12.333,27.646,16.865     c10.615,4.885,20.646,9.51,24.771,16.635c4.01,6.927,3.031,17.823,1.99,29.354c-0.979,10.875-1.979,22.125,0.854,32.75     c2.729,10.188,9.094,19.188,15.25,27.885c6.844,9.656,13.302,18.792,13.302,27.354S484.208,273.698,477.365,283.354z" data-original="#000000" class="active-path" fill="#000000"/>
		</g>
	</g>
</g></g> </svg>
