<svg height="480pt" viewBox="-128 0 480 480" width="480pt" xmlns="http://www.w3.org/2000/svg"><path d="m8 88h208v112h-208zm0 0" fill="#7aa1bc"/><path d="m72 88h-32v-64c0-8.835938 7.164062-16 16-16s16 7.164062 16 16zm0 0" fill="#143441"/><path d="m184 88h-32v-64c0-8.835938 7.164062-16 16-16s16 7.164062 16 16zm0 0" fill="#143441"/><path d="m120 264h-16c-35.347656 0-64-28.652344-64-64h144c0 35.347656-28.652344 64-64 64zm0 0" fill="#cfdfe8"/><path d="m72 264h80v32h-80zm0 0" fill="#5a6470"/><path d="m96 296h32v176h-32zm0 0" fill="#143441"/><path d="m40 120h32v48h-32zm0 0" fill="#cfdfe8"/><path d="m152 120h32v48h-32zm0 0" fill="#cfdfe8"/><path d="m191.527344 208h24.472656c4.417969 0 8-3.582031 8-8v-112c0-4.417969-3.582031-8-8-8h-24v-56c0-13.253906-10.746094-24-24-24s-24 10.746094-24 24v56h-64v-56c0-13.253906-10.746094-24-24-24s-24 10.746094-24 24v56h-24c-4.417969 0-8 3.582031-8 8v112c0 4.417969 3.582031 8 8 8h24.472656c2.421875 21.457031 14.34375 40.691406 32.480469 52.40625-.601563 1.105469-.929687 2.335938-.953125 3.59375v32c0 4.417969 3.582031 8 8 8h16v168c0 4.417969 3.582031 8 8 8h32c4.417969 0 8-3.582031 8-8v-168h16c4.417969 0 8-3.582031 8-8v-32c-.023438-1.257812-.351562-2.488281-.953125-3.59375 18.136719-11.714844 30.058594-30.949219 32.480469-52.40625zm-31.527344-184c0-4.417969 3.582031-8 8-8s8 3.582031 8 8v56h-16zm-112 0c0-4.417969 3.582031-8 8-8s8 3.582031 8 8v56h-16zm-32 168v-96h192v96zm104 272h-16v-160h16zm24-176h-64v-16h64zm-24-32h-16c-27.824219-.035156-51.417969-20.464844-55.433594-48h126.867188c-4.015625 27.535156-27.609375 47.960938-55.433594 48zm0 0"/><path d="m72 112h-32c-4.417969 0-8 3.582031-8 8v48c0 4.417969 3.582031 8 8 8h32c4.417969 0 8-3.582031 8-8v-48c0-4.417969-3.582031-8-8-8zm-8 48h-16v-32h16zm0 0"/><path d="m192 168v-48c0-4.417969-3.582031-8-8-8h-32c-4.417969 0-8 3.582031-8 8v48c0 4.417969 3.582031 8 8 8h32c4.417969 0 8-3.582031 8-8zm-16-8h-16v-32h16zm0 0"/></svg>