<?xml version="1.0" encoding="UTF-8" standalone="no"?>
<!-- Created with Inkscape (http://www.inkscape.org/) -->
<svg
   xmlns:dc="http://purl.org/dc/elements/1.1/"
   xmlns:cc="http://web.resource.org/cc/"
   xmlns:rdf="http://www.w3.org/1999/02/22-rdf-syntax-ns#"
   xmlns:svg="http://www.w3.org/2000/svg"
   xmlns="http://www.w3.org/2000/svg"
   xmlns:sodipodi="http://sodipodi.sourceforge.net/DTD/sodipodi-0.dtd"
   xmlns:inkscape="http://www.inkscape.org/namespaces/inkscape"
   width="593"
   height="182"
   id="svg2"
   sodipodi:version="0.32"
   inkscape:version="0.45.1"
   version="1.0"
   inkscape:output_extension="org.inkscape.output.svg.inkscape">
  <g
     inkscape:label="Layer 1"
     inkscape:groupmode="layer"
     id="layer1"
     transform="translate(-79.958536,-732.90223)">
    <path
       style="fill:#231f20;fill-rule:evenodd;stroke:none"
       d="M 591.12328,900.31139 L 671.7298,900.31139 L 671.7298,914.90223 L 575.93281,914.90223 L 575.93281,901.73907 C 575.93281,888.97565 586.52616,881.35187 596.86253,880.06696 L 653.22714,872.92859 C 657.08186,872.44318 658.36677,870.24456 658.36677,868.64556 C 658.36677,866.24707 656.48223,864.39109 654.1694,864.39109 L 582.35735,864.39109 L 582.35735,849.8288 L 654.1694,849.8288 C 664.59143,849.8288 672.9576,858.25209 672.9576,868.64556 C 672.9576,879.78143 663.79193,886.32018 655.02601,887.40521 L 598.6614,894.51503 C 592.63661,895.42874 591.78001,897.59881 591.12328,900.31139 z M 283.74486,864.4482 C 278.14837,864.4482 273.63692,868.81688 273.63692,874.21349 L 273.63692,883.97879 L 328.74517,883.97879 C 334.34166,883.97879 338.85311,879.58155 338.85311,874.21349 C 338.85311,868.81688 334.34166,864.4482 328.74517,864.4482 L 283.74486,864.4482 z M 273.63692,898.62673 L 273.63692,914.90223 L 257.36143,914.90223 L 257.36143,873.81374 C 257.58985,860.53637 268.81138,849.8288 282.57417,849.8288 L 329.91587,849.8288 C 343.82142,849.8288 355.12861,860.73624 355.12861,874.21349 C 355.12861,882.89376 350.44583,890.48899 343.42167,894.82912 L 355.12861,914.90223 L 337.31122,914.90223 L 327.83146,898.62673 L 273.63692,898.62673 z M 363.15214,864.4482 L 363.15214,849.8288 L 460.77655,849.8288 L 460.77655,864.4482 L 420.08782,864.4482 L 420.08782,914.90223 L 403.84088,914.90223 L 403.84088,864.4482 L 363.15214,864.4482 z M 494.15559,849.8288 L 541.32597,849.8288 C 555.26008,849.8288 566.53871,860.73624 566.53871,874.21349 C 566.53871,887.69074 555.26008,898.62673 541.32597,898.62673 L 485.18979,898.62673 L 485.18979,914.90223 L 468.9143,914.90223 L 468.9143,873.81374 C 469.14273,860.53637 480.36425,849.8288 494.15559,849.8288 z M 495.29773,864.4482 C 489.70125,864.4482 485.18979,868.81688 485.18979,874.21349 L 485.18979,883.97879 L 540.18383,883.97879 C 545.75177,883.97879 550.26322,879.58155 550.26322,874.21349 C 550.26322,868.81688 545.75177,864.4482 540.18383,864.4482 L 495.29773,864.4482"
       id="path3214" />
    <path
       style="fill:#ffc20e;fill-rule:evenodd;stroke:none"
       d="M 79.958536,873.414 L 79.958536,792.32206 C 79.958536,778.38795 90.865973,767.08076 104.37178,767.08076 C 118.07746,767.30919 128.78502,778.53072 128.78502,792.32206 L 128.78502,873.414 C 128.78502,887.3481 117.84903,898.62673 104.37178,898.62673 C 90.666098,898.42686 79.958536,887.20534 79.958536,873.414 z M 145.03196,839.23546 L 145.03196,758.08641 C 145.03196,744.20941 155.96795,732.90223 169.4452,732.90223 C 183.15088,733.13065 193.85844,744.32363 193.85844,758.08641 L 193.85844,839.23546 C 193.85844,853.16956 182.95101,864.4482 169.4452,864.4482 C 155.73952,864.21977 145.03196,853.0268 145.03196,839.23546"
       id="path3218" />
  </g>
</svg>
