<?xml version="1.0" encoding="iso-8859-1"?>
<!-- Generator: Adobe Illustrator 19.0.0, SVG Export Plug-In . SVG Version: 6.00 Build 0)  -->
<svg version="1.1" id="Capa_1" xmlns="http://www.w3.org/2000/svg" xmlns:xlink="http://www.w3.org/1999/xlink" x="0px" y="0px"
	 viewBox="0 0 512 512" style="enable-background:new 0 0 512 512;" xml:space="preserve">
<path style="fill:#FF7956;" d="M459.5,298.754h-407V126.746c0-13.807,11.193-25,25-25h357c13.807,0,25,11.193,25,25V298.754z"/>
<g>
	<path style="fill:#FF3F62;" d="M198.212,234.754h-58.004c-6.904,0-12.5-5.596-12.5-12.5V164.25c0-6.904,5.596-12.5,12.5-12.5
		h58.004c6.904,0,12.5,5.596,12.5,12.5v58.004C210.712,229.156,205.115,234.754,198.212,234.754z"/>
	<path style="fill:#FF3F62;" d="M314.002,234.754h-58.004c-6.904,0-12.5-5.596-12.5-12.5V164.25c0-6.904,5.596-12.5,12.5-12.5
		h58.004c6.904,0,12.5,5.596,12.5,12.5v58.004C326.502,229.156,320.905,234.754,314.002,234.754z"/>
	<path style="fill:#FF3F62;" d="M429.792,234.754h-58.004c-6.904,0-12.5-5.596-12.5-12.5V164.25c0-6.904,5.596-12.5,12.5-12.5
		h58.004c6.904,0,12.5,5.596,12.5,12.5v58.004C442.292,229.156,436.696,234.754,429.792,234.754z"/>
	<path style="fill:#FF3F62;" d="M107.5,101.746h-30c-13.807,0-25,11.193-25,25v172.007h30V126.746
		C82.5,112.939,93.693,101.746,107.5,101.746z"/>
</g>
<g>
	<path style="fill:#FF7956;" d="M459.5,298.754h-407v-39c0-13.807,11.193-25,25-25h357c13.807,0,25,11.193,25,25V298.754z"/>
	<path style="fill:#FF7956;" d="M492,158.254h-20c-6.904,0-12.5,5.596-12.5,12.5v128h-407v-128c0-6.904-5.596-12.5-12.5-12.5H20
		c-6.904,0-12.5,5.596-12.5,12.5v183h497v-183C504.5,163.85,498.904,158.254,492,158.254z"/>
</g>
<g>
	<rect x="51" y="353.75" style="fill:#EE8700;" width="30" height="56.5"/>
	<rect x="429" y="353.75" style="fill:#EE8700;" width="30" height="56.5"/>
</g>
<g>
	<path style="fill:#787680;" d="M168.212,234.754h-58.004c-6.904,0-12.5-5.596-12.5-12.5V164.25c0-6.904,5.596-12.5,12.5-12.5
		h58.004c6.904,0,12.5,5.596,12.5,12.5v58.004C180.712,229.156,175.115,234.754,168.212,234.754z"/>
	<path style="fill:#787680;" d="M284.002,234.754h-58.004c-6.904,0-12.5-5.596-12.5-12.5V164.25c0-6.904,5.596-12.5,12.5-12.5
		h58.004c6.904,0,12.5,5.596,12.5,12.5v58.004C296.502,229.156,290.905,234.754,284.002,234.754z"/>
	<path style="fill:#787680;" d="M399.792,234.754h-58.004c-6.904,0-12.5-5.596-12.5-12.5V164.25c0-6.904,5.596-12.5,12.5-12.5
		h58.004c6.904,0,12.5,5.596,12.5,12.5v58.004C412.292,229.156,406.696,234.754,399.792,234.754z"/>
</g>
<g>
	<path style="fill:#FF3F62;" d="M107.5,234.754h-30c-13.807,0-25,11.193-25,25v39h30v-39C82.5,245.947,93.693,234.754,107.5,234.754
		z"/>
	<path style="fill:#FF3F62;" d="M489.5,170.754c0-5.126,3.085-9.53,7.5-11.459c-1.531-0.669-3.222-1.041-5-1.041h-20
		c-6.904,0-12.5,5.596-12.5,12.5v128h30V170.754z"/>
	<path style="fill:#FF3F62;" d="M45,159.294c-1.531-0.669-3.222-1.041-5-1.041H20c-6.904,0-12.5,5.596-12.5,12.5v183h30v-183
		C37.5,165.628,40.585,161.224,45,159.294z"/>
</g>
<g>
	<rect x="51" y="353.75" style="fill:#FF5023;" width="10" height="56.5"/>
	<rect x="429" y="353.75" style="fill:#FF5023;" width="10" height="56.5"/>
</g>
<g>
	<path style="fill:#57565C;" d="M127.708,222.254V164.25c0-6.904,5.596-12.5,12.5-12.5h-30c-6.904,0-12.5,5.596-12.5,12.5v58.004
		c0,6.904,5.596,12.5,12.5,12.5h30C133.304,234.754,127.708,229.156,127.708,222.254z"/>
	<path style="fill:#57565C;" d="M243.498,222.254V164.25c0-6.904,5.596-12.5,12.5-12.5h-30c-6.904,0-12.5,5.596-12.5,12.5v58.004
		c0,6.904,5.596,12.5,12.5,12.5h30C249.095,234.754,243.498,229.156,243.498,222.254z"/>
	<path style="fill:#57565C;" d="M359.288,222.254V164.25c0-6.904,5.596-12.5,12.5-12.5h-30c-6.904,0-12.5,5.596-12.5,12.5v58.004
		c0,6.904,5.596,12.5,12.5,12.5h30C364.885,234.754,359.288,229.156,359.288,222.254z"/>
</g>
<g>
	<rect x="364.5" y="119.25" style="fill:#FFFFFF;" width="15" height="15"/>
	<rect x="389.5" y="119.25" style="fill:#FFFFFF;" width="15" height="15"/>
	<path style="fill:#FFFFFF;" d="M427,184.754h15V131.75c0-6.895-5.609-12.503-12.503-12.503H414.5v15H427V184.754z"/>
	<rect x="414" y="259.25" style="fill:#FFFFFF;" width="15" height="15"/>
	<rect x="389" y="259.25" style="fill:#FFFFFF;" width="15" height="15"/>
	<rect x="270" y="259.25" style="fill:#FFFFFF;" width="109" height="15"/>
</g>
<rect x="134.42" y="119.25" width="15" height="15"/>
<rect x="84.42" y="119.25" width="15" height="15"/>
<rect x="109.42" y="119.25" width="15" height="15"/>
<rect x="375.12" y="318.75" width="15" height="15"/>
<rect x="400.12" y="318.75" width="15" height="15"/>
<rect x="425.12" y="318.75" width="15" height="15"/>
<rect x="350.12" y="318.75" width="15" height="15"/>
<path d="M492,150.754h-20c-1.726,0-3.401,0.22-5,0.633v-24.64c0-17.92-14.58-32.5-32.5-32.5h-357c-17.92,0-32.5,14.58-32.5,32.5
	v24.64c-1.599-0.413-3.274-0.633-5-0.633H20c-11.028,0-20,8.972-20,20v190.5h512v-190.5C512,159.725,503.028,150.754,492,150.754z
	 M60,274.254h66v-15H60.007c0.266-9.419,8.01-17,17.493-17h357c9.649,0,17.5,7.851,17.5,17.5v31.5H60V274.254z M105.208,222.254
	V164.25c0-2.757,2.243-5,5-5h58.003c2.757,0,5,2.243,5,5v58.003c0,2.757-2.243,5-5,5h-58.003
	C107.451,227.254,105.208,225.009,105.208,222.254z M220.998,222.254V164.25c0-2.757,2.243-5,5-5h58.004c2.757,0,5,2.243,5,5v58.003
	c0,2.757-2.243,5-5,5h-58.004C223.241,227.254,220.998,225.009,220.998,222.254z M336.789,222.254V164.25c0-2.757,2.243-5,5-5
	h58.003c2.757,0,5,2.243,5,5v58.003c0,2.757-2.243,5-5,5h-58.003C339.032,227.254,336.789,225.009,336.789,222.254z M60,126.746
	c0-9.649,7.851-17.5,17.5-17.5h357c9.649,0,17.5,7.851,17.5,17.5v105.632c-5.055-3.243-11.062-5.125-17.5-5.125h-15.341
	c0.413-1.599,0.633-3.274,0.633-5V164.25c0-11.028-8.972-20-20-20h-58.003c-11.028,0-20,8.972-20,20v58.003
	c0,1.726,0.22,3.401,0.633,5H303.37c0.413-1.599,0.633-3.274,0.633-5V164.25c0-11.028-8.972-20-20-20h-58.004
	c-11.028,0-20,8.972-20,20v58.003c0,1.726,0.22,3.401,0.633,5H187.58c0.413-1.599,0.633-3.274,0.633-5V164.25
	c0-11.028-8.972-20-20-20H110.21c-11.028,0-20,8.972-20,20v58.003c0,1.726,0.22,3.401,0.633,5H77.5
	c-6.438,0-12.445,1.882-17.5,5.125V126.746z M497,346.254H15v-175.5c0-2.757,2.243-5,5-5h20c2.757,0,5,2.243,5,5v150.5h15v-15h392
	v15h15v-150.5c0-2.757,2.243-5,5-5h20c2.757,0,5,2.243,5,5V346.254z"/>
<g>
	<rect x="474.5" y="182.75" style="fill:#FFFFFF;" width="15" height="15"/>
	<rect x="474.5" y="207.75" style="fill:#FFFFFF;" width="15" height="15"/>
	<rect x="474.5" y="232.75" style="fill:#FFFFFF;" width="15" height="30"/>
	<rect x="22.5" y="207.75" style="fill:#FFFFFF;" width="15" height="15"/>
	<rect x="22.5" y="232.75" style="fill:#FFFFFF;" width="15" height="30"/>
	<rect x="22.5" y="182.75" style="fill:#FFFFFF;" width="15" height="15"/>
</g>
<polygon points="73.5,380.754 66,380.754 66,395.754 73.5,395.754 73.5,402.754 58.5,402.754 58.5,373.754 43.5,373.754 
	43.5,417.754 88.5,417.754 88.5,373.754 73.5,373.754 "/>
<polygon points="451.5,402.754 436.5,402.754 436.5,393.92 444,393.92 444,378.92 436.5,378.92 436.5,373.754 421.5,373.754 
	421.5,417.754 466.5,417.754 466.5,373.754 451.5,373.754 "/>
<rect x="116.88" y="167.25" width="44.667" height="15"/>
<rect x="233.67" y="167.25" width="44.667" height="15"/>
<rect x="350.46" y="167.25" width="44.667" height="15"/>
<g>
</g>
<g>
</g>
<g>
</g>
<g>
</g>
<g>
</g>
<g>
</g>
<g>
</g>
<g>
</g>
<g>
</g>
<g>
</g>
<g>
</g>
<g>
</g>
<g>
</g>
<g>
</g>
<g>
</g>
</svg>
