<?xml version="1.0"?>
<svg xmlns="http://www.w3.org/2000/svg" height="512px" viewBox="0 -55 480 479" width="512px" class=""><g><path d="m8 8.5h464v288h-464zm0 0" fill="#bcbec0" data-original="#BCBEC0" class="active-path" style="fill:#F0F0F0" data-old_color="#EDEDEE"/><path d="m472 .5h-464c-4.417969 0-8 3.582031-8 8v288c0 4.417969 3.582031 8 8 8h56.800781l-50.402343 50.34375c-2.078126 2.007812-2.914063 4.984375-2.179688 7.78125.730469 2.796875 2.917969 4.980469 5.714844 5.710938 2.796875.734374 5.769531-.101563 7.777344-2.179688l61.679687-61.65625h1.21875l61.65625 61.65625c3.121094 3.128906 8.191406 3.136719 11.324219.011719 3.128906-3.125 3.132812-8.195313.011718-11.324219l-50.402343-50.34375h257.601562l-50.402343 50.34375c-2.078126 2.007812-2.914063 4.984375-2.179688 7.78125.730469 2.796875 2.917969 4.980469 5.714844 5.710938 2.796875.734374 5.769531-.101563 7.777344-2.179688l61.679687-61.65625h1.21875l61.65625 61.65625c3.121094 3.128906 8.191406 3.136719 11.324219.011719 3.128906-3.125 3.132812-8.195313.011718-11.324219l-50.402343-50.34375h56.800781c4.417969 0 8-3.582031 8-8v-288c0-4.417969-3.582031-8-8-8zm-8 288h-448v-272h448zm0 0" data-original="#000000" class="" style="fill:#000000"/><path d="m304.503906 211.316406c1.171875 3.125 4.15625 5.195313 7.492188 5.195313 3.335937 0 6.320312-2.070313 7.492187-5.195313l48-128c1.433594-4.109375-.675781-8.609375-4.753906-10.132812-4.074219-1.523438-8.621094.492187-10.230469 4.53125l-40.503906 108-40.503906-108c-1.609375-4.039063-6.15625-6.054688-10.230469-4.53125-4.078125 1.523437-6.1875 6.023437-4.753906 10.132812zm0 0" data-original="#000000" class="" style="fill:#000000"/><path d="m120 88.5h40v120c0 4.417969 3.582031 8 8 8s8-3.582031 8-8v-120h40c4.417969 0 8-3.582031 8-8s-3.582031-8-8-8h-96c-4.417969 0-8 3.582031-8 8s3.582031 8 8 8zm0 0" data-original="#000000" class="" style="fill:#000000"/></g> </svg>
