<?xml version="1.0"?>
<svg xmlns="http://www.w3.org/2000/svg" height="512px" viewBox="0 -29 512.00002 512" width="512px" class=""><g><path d="m249.363281 151c0-78.765625 56.65625-142.847656 126.292969-142.847656 12.15625 0 23.921875 1.953125 35.054688 5.597656 52.636718 17.226562 91.234374 72.234375 91.234374 137.25l-56.757812-.890625c0-47.46875-31.191406-86.085937-69.53125-86.085937s-69.53125 38.617187-69.53125 86.085937" fill="#5a5a5a" data-original="#5A5A5A" class="" style="fill:#3B3737" data-old_color="#3B3636"/><path d="m154.332031 444.730469h-115.6875c-16.691406 0-30.222656-13.53125-30.222656-30.222657v-233.289062c0-16.691406 13.53125-30.21875 30.222656-30.21875h283.535157c16.691406 0 30.21875 13.527344 30.21875 30.21875v233.289062c0 16.691407-13.527344 30.222657-30.21875 30.222657zm0 0" fill="#cec5c2" data-original="#CEC5C2" class="active-path" style="fill:#F4E80D" data-old_color="#EFE313"/><path d="m217.699219 265.332031c0-18.742187-15.066407-33.964843-33.746094-34.21875-18.871094-.253906-34.625 15.222657-34.691406 34.09375-.042969 11.96875 6.066406 22.511719 15.339843 28.660157v52.433593c0 10.117188 8.199219 18.316407 18.316407 18.316407 10.113281 0 18.3125-8.199219 18.3125-18.316407v-51.707031c9.875-6.003906 16.46875-16.863281 16.46875-29.261719zm0 0" fill="#fff" data-original="#FFF"/><path d="m419.503906 6.1875c-5.195312-1.984375-11.019531.621094-13.003906 5.820312-1.980469 5.199219.625 11.019532 5.820312 13.003907 44.710938 17.0625 75.632813 62.8125 79.191407 115.75l-36.691407-.578125c-4.125-48.375-38.0625-86.234375-79.183593-86.234375-41.328125 0-75.398438 38.246093-79.242188 86.976562h-36.636719c3.523438-53.78125 35.050782-99.851562 80.691407-116.472656 5.230469-1.90625 7.921875-7.6875 6.019531-12.914063-1.902344-5.226562-7.683594-7.921874-12.914062-6.019531-27.300782 9.945313-50.765626 28.984375-67.855469 55.066407-15.507813 23.660156-24.433594 51.257812-26.113281 80.339843h-18.636719c-5.5625 0-10.074219 4.507813-10.074219 10.074219 0 5.5625 4.511719 10.070312 10.074219 10.070312h113.113281c2.960938 2.085938 9.917969 10.3125 9.917969 20.148438v73.433594h-51.21875c-5.566407 0-10.074219 4.511718-10.074219 10.074218s4.507812 10.074219 10.074219 10.074219h51.21875v54.121094h-50.210938c-5.566406 0-10.074219 4.507813-10.074219 10.070313 0 5.566406 4.507813 10.074218 10.074219 10.074218h50.210938v65.445313c0 11.109375-9.039063 20.148437-20.148438 20.148437h-283.535156c-11.109375 0-20.148437-9.039062-20.148437-20.148437v-65.445313h48.820312c5.566406 0 10.074219-4.507812 10.074219-10.074218 0-5.5625-4.507813-10.070313-10.074219-10.070313h-48.820312v-54.121094h52.34375c5.566406 0 10.074218-4.511719 10.074218-10.074219s-4.507812-10.074218-10.074218-10.074218h-52.34375v-73.433594c0-11.109375 9.039062-20.148438 20.148437-20.148438h101.5c5.5625 0 10.070313-4.507812 10.070313-10.070312 0-5.566406-4.507813-10.074219-10.070313-10.074219h-101.5c-22.21875 0-40.296875 18.074219-40.296875 40.292969v233.292969c0 22.21875 18.078125 40.292969 40.296875 40.292969h283.535156c22.21875 0 40.292969-18.074219 40.292969-40.292969v-233.292969c0-20.371094-16.34375-40.292969-28.542969-40.292969h-18.953125c3.558594-37.597656 28.65625-66.828125 59.007813-66.828125 32.785156 0 59.457031 34.097656 59.457031 76.011719 0 5.5 4.414062 9.984375 9.914062 10.070313l56.761719.890624h.15625c2.644531 0 5.183594-1.035156 7.066407-2.894531 1.925781-1.894531 3.007812-4.480469 3.007812-7.175781 0-65.507812-37.171875-123.703125-92.496094-144.8125zm0 0" data-original="#000000" class="" style="fill:#000000"/><path d="m154.527344 298.851562v47.449219c0 15.65625 12.734375 28.390625 28.390625 28.390625 15.652343 0 28.386719-12.734375 28.386719-28.390625v-46.488281c10.40625-8.359375 16.472656-20.871094 16.472656-34.480469 0-24.097656-19.597656-43.964843-43.683594-44.289062-11.835938-.171875-23.066406 4.375-31.601562 12.765625-8.539063 8.390625-13.261719 19.527344-13.304688 31.363281-.046875 13.050781 5.601562 25.277344 15.339844 33.679687zm12.085937-50.675781c4.59375-4.515625 10.578125-6.988281 16.878907-6.988281h.324218c13.128906.175781 23.8125 11.007812 23.8125 24.144531 0 8.503907-4.347656 16.226563-11.628906 20.652344-3.007812 1.828125-4.84375 5.089844-4.84375 8.609375v51.707031c0 4.546875-3.695312 8.242188-8.242188 8.242188-4.542968 0-8.238281-3.695313-8.238281-8.242188v-52.433593c0-3.375-1.695312-6.527344-4.511719-8.394532-6.808593-4.515625-10.859374-12.078125-10.828124-20.230468.023437-6.414063 2.605468-12.472657 7.277343-17.066407zm0 0" data-original="#000000" class="" style="fill:#000000"/><path d="m171.886719 154.90625c1.589843 3.914062 5.359375 6.285156 9.335937 6.285156 1.261719 0 2.546875-.242187 3.789063-.746094 5.15625-2.09375 7.636719-7.96875 5.542969-13.125l-.09375-.230468c-2.09375-5.152344-7.972657-7.632813-13.125-5.539063-5.15625 2.09375-7.636719 7.96875-5.542969 13.125zm0 0" data-original="#000000" class="" style="fill:#000000"/><path d="m367.773438 14.082031c1.582031 3.921875 5.355468 6.300781 9.339843 6.300781 1.257813 0 2.535157-.238281 3.773438-.738281 5.15625-2.082031 7.648437-7.953125 5.5625-13.113281l-.09375-.230469c-2.082031-5.15625-7.953125-7.648437-13.113281-5.5625-5.15625 2.082031-7.648438 7.953125-5.5625 13.113281zm0 0" data-original="#000000" class="" style="fill:#000000"/></g> </svg>
