<svg height="480pt" viewBox="-56 0 480 480" width="480pt" xmlns="http://www.w3.org/2000/svg"><path d="m360 120v336c-.027344 8.824219-7.175781 15.972656-16 16h-320c-8.824219-.027344-15.972656-7.175781-16-16v-336zm0 0" fill="#bcbec0"/><path d="m328 296c0 79.527344-64.472656 144-144 144s-144-64.472656-144-144 64.472656-144 144-144 144 64.472656 144 144zm0 0" fill="#ffda44"/><path d="m184 176c-57.605469-.011719-107.089844 40.90625-117.894531 97.488281-10.808594 56.582031 20.117187 112.859375 73.671875 134.074219 53.550781 21.21875 114.628906 1.386719 145.503906-47.242188-7.921875-11.839843-13.28125-36.160156-13.28125-64.320312s5.359375-52.480469 13.28125-64.320312c-22.035156-34.640626-60.226562-55.640626-101.28125-55.679688zm0 0" fill="#66a7f6"/><path d="m360 24v96h-352v-96c.027344-8.824219 7.175781-15.972656 16-16h320c8.824219.027344 15.972656 7.175781 16 16zm0 0" fill="#a7a9ac"/><path d="m168 64c0 13.253906-10.746094 24-24 24s-24-10.746094-24-24 10.746094-24 24-24 24 10.746094 24 24zm0 0" fill="#ffeb99"/><path d="m32 40h64v48h-64zm0 0" fill="#ffda44"/><path d="m248 64c0 13.253906-10.746094 24-24 24s-24-10.746094-24-24 10.746094-24 24-24 24 10.746094 24 24zm0 0" fill="#ffeb99"/><path d="m272 40h64v48h-64zm0 0" fill="#ffda44"/><path d="m184 448c83.949219 0 152-68.050781 152-152s-68.050781-152-152-152-152 68.050781-152 152c.097656 83.90625 68.09375 151.902344 152 152zm0-288c75.109375 0 136 60.890625 136 136s-60.890625 136-136 136-136-60.890625-136-136c.082031-75.074219 60.925781-135.917969 136-136zm0 0"/><path d="m184 424c43.761719.046875 84.5-22.316406 107.953125-59.265625v-.039063l.046875-.0625c.125-.277343.238281-.566406.328125-.855468.355469-.628906.625-1.300782.800781-2 .027344-1.023438.027344-2.042969 0-3.066406-.175781-.699219-.445312-1.371094-.800781-2-.097656-.273438-.214844-.539063-.34375-.800782-7.304687-10.871094-11.984375-34.375-11.984375-59.910156s4.679688-49.039062 11.929688-59.871094c.128906-.261718.242187-.527344.34375-.800781.355468-.628906.625-1.300781.796874-2 .03125-1.019531.03125-2.042969 0-3.0625-.171874-.703125-.441406-1.375-.796874-2-.09375-.292969-.203126-.578125-.328126-.859375l-.050781-.0625v-.039062c-32.972656-51.84375-98.132812-72.945313-155.238281-50.269532-57.101562 22.671875-90.042969 82.722656-78.476562 143.0625 11.570312 60.34375 64.378906 103.953125 125.820312 103.902344zm0-240c36.652344-.027344 70.980469 17.9375 91.855469 48.0625-8.636719 20.171875-12.6875 42.011719-11.855469 63.9375-.832031 21.925781 3.21875 43.765625 11.855469 63.9375-30.359375 43.667969-87.246094 59.960938-136.121094 38.988281-48.875-20.972656-76.261719-73.425781-65.535156-125.519531 10.730469-52.089844 56.617187-89.453125 109.800781-89.40625zm0 0"/><path d="m144 32c-17.671875 0-32 14.328125-32 32s14.328125 32 32 32 32-14.328125 32-32-14.328125-32-32-32zm0 48c-8.835938 0-16-7.164062-16-16s7.164062-16 16-16 16 7.164062 16 16-7.164062 16-16 16zm0 0"/><path d="m96 32h-64c-4.417969 0-8 3.582031-8 8v48c0 4.417969 3.582031 8 8 8h64c4.417969 0 8-3.582031 8-8v-48c0-4.417969-3.582031-8-8-8zm-8 48h-48v-32h48zm0 0"/><path d="m224 32c-17.671875 0-32 14.328125-32 32s14.328125 32 32 32 32-14.328125 32-32-14.328125-32-32-32zm0 48c-8.835938 0-16-7.164062-16-16s7.164062-16 16-16 16 7.164062 16 16-7.164062 16-16 16zm0 0"/><path d="m336 32h-64c-4.417969 0-8 3.582031-8 8v48c0 4.417969 3.582031 8 8 8h64c4.417969 0 8-3.582031 8-8v-48c0-4.417969-3.582031-8-8-8zm-8 48h-48v-32h48zm0 0"/><path d="m344 0h-320c-13.253906 0-24 10.746094-24 24v432c0 13.253906 10.746094 24 24 24h320c13.253906 0 24-10.746094 24-24v-432c0-13.253906-10.746094-24-24-24zm-328 24c0-4.417969 3.582031-8 8-8h320c4.417969 0 8 3.582031 8 8v88h-336zm336 432c0 4.417969-3.582031 8-8 8h-320c-4.417969 0-8-3.582031-8-8v-328h336zm0 0"/><path d="m288 280v32c0 4.417969 3.582031 8 8 8s8-3.582031 8-8v-32c0-4.417969-3.582031-8-8-8s-8 3.582031-8 8zm0 0"/></svg>